<svg xmlns="http://www.w3.org/2000/svg" xmlns:xlink="http://www.w3.org/1999/xlink" width="45" height="72"><path d="M38.25-15.89C38.25-20.46 36.76-24.26 33.79-27.28C31.02-30.09 27.79-31.50 24.08-31.50L22.50-31.50C18.14-31.50 14.43-29.96 11.36-26.89C8.29-23.82 6.75-20.11 6.75-15.75C6.75-11.39 8.29-7.68 11.36-4.61C14.43-1.54 18.14 0 22.50 0C25.73 0 28.62-0.83 31.15-2.50C33.54-4.07 35.40-6.23 36.74-9L32.87-9C31.72-7.24 30.26-5.87 28.49-4.87C26.72-3.87 24.73-3.38 22.50-3.38C19.27-3.38 16.48-4.45 14.13-6.61C11.79-8.77 10.46-11.44 10.16-14.63L38.11-14.63C38.13-14.84 38.16-15.04 38.20-15.22C38.23-15.41 38.25-15.63 38.25-15.89ZM34.52-18L10.34-18C10.87-20.95 12.27-23.38 14.52-25.28C16.77-27.18 19.43-28.13 22.50-28.13L24.29-28.13C27.06-28.13 29.46-27.13 31.48-25.15C33.51-23.17 34.52-20.79 34.52-18Z"/></svg>