<svg xmlns="http://www.w3.org/2000/svg" xmlns:xlink="http://www.w3.org/1999/xlink" width="45" height="72"><path d="M38.25-38.14L38.25-41.63C37.43-42.23 36.23-42.91 34.66-43.66C32.79-44.55 31.34-45 30.30-45L27.07-45C23.32-45 20.31-44.10 18.04-42.29C15.76-40.49 14.63-38.05 14.63-34.98L14.63-31.50L7.88-31.50L7.88-28.13L14.63-28.13L14.63 0L18 0L18-28.13L31.50-28.13L31.50-31.50L18-31.50L18-35.02C18-37.01 18.56-38.53 19.69-39.59C21.14-40.95 23.60-41.63 27.07-41.63L30.13-41.63C31.44-41.63 33.15-41.05 35.26-39.90C35.80-39.60 36.80-39.01 38.25-38.14Z"/></svg>