<svg xmlns="http://www.w3.org/2000/svg" xmlns:xlink="http://www.w3.org/1999/xlink" width="45" height="72"><path d="M38.25 2.25L38.25-31.50L34.88-31.50L34.88-25.49C33.35-27.41 31.59-28.87 29.60-29.88C27.47-30.96 25.10-31.50 22.50-31.50C18.14-31.50 14.43-29.96 11.36-26.89C8.29-23.82 6.75-20.11 6.75-15.75C6.75-11.39 8.29-7.68 11.36-4.61C14.43-1.54 18.14 0 22.50 0C25.10 0 27.48-0.55 29.64-1.65C31.65-2.66 33.40-4.11 34.88-6.01L34.88 2.25C34.88 5.67 33.67 8.59 31.25 11.00C28.84 13.42 25.92 14.63 22.50 14.63C19.08 14.63 16.16 13.42 13.75 11.00C11.33 8.59 10.13 5.67 10.13 2.25L6.75 2.25C6.75 6.61 8.29 10.32 11.36 13.39C14.43 16.46 18.14 18 22.50 18C26.86 18 30.57 16.46 33.64 13.39C36.71 10.32 38.25 6.61 38.25 2.25ZM34.88-15.75C34.88-12.33 33.67-9.41 31.25-7.00C28.84-4.58 25.92-3.38 22.50-3.38C19.08-3.38 16.16-4.58 13.75-7.00C11.33-9.41 10.13-12.33 10.13-15.75C10.13-19.17 11.33-22.09 13.75-24.50C16.16-26.92 19.08-28.13 22.50-28.13C25.92-28.13 28.84-26.92 31.25-24.50C33.67-22.09 34.88-19.17 34.88-15.75Z"/></svg>