<svg xmlns="http://www.w3.org/2000/svg" xmlns:xlink="http://www.w3.org/1999/xlink" width="45" height="72"><path d="M30.38-41.63L30.38-45L27-45L27-41.63ZM30.38 2.25L30.38-31.50L14.06-31.50L14.06-28.13L27-28.13L27 2.25C27 5.91 25.96 8.85 23.87 11.07C21.57 13.54 18.30 14.77 14.06 14.77C13.01 14.77 12.22 14.72 11.71 14.63C10.79 14.46 9.70 14.09 8.44 13.50L6.75 16.35C7.99 16.91 8.86 17.26 9.35 17.40C10.69 17.80 12.26 18 14.06 18C19.24 18 23.32 16.42 26.30 13.25C29.02 10.37 30.38 6.70 30.38 2.25Z"/></svg>