<svg xmlns="http://www.w3.org/2000/svg" xmlns:xlink="http://www.w3.org/1999/xlink" width="45" height="72"><path d="M38.25 0L38.25-3.38C35.02-3.38 32.36-3.79 30.27-4.61C28.54-5.29 26.43-6.60 23.94-8.54C18.69-12.64 15.59-15.05 14.63-15.75C17.44-17.79 20.34-20.20 23.34-22.99C25.59-25.08 27.25-26.39 28.30-26.93C29.85-27.73 32.04-28.13 34.88-28.13L34.88-31.50C31.62-31.50 28.83-30.82 26.51-29.46C25.57-28.90 23.43-27.19 20.07-24.33C16.91-21.61 13.59-19.31 10.13-17.44L10.13-45L6.75-45L6.75 0L10.13 0L10.13-14.06C13.31-12.33 16.84-10.03 20.71-7.17C24.32-4.50 26.93-2.78 28.55-2.00C31.36-0.67 34.59 0 38.25 0Z"/></svg>