<svg xmlns="http://www.w3.org/2000/svg" xmlns:xlink="http://www.w3.org/1999/xlink" width="45" height="72"><path d="M40.50 0L40.50-21.94C40.50-24.63 39.54-26.90 37.63-28.74C35.72-30.58 33.40-31.50 30.66-31.50C28.90-31.50 27.33-31.11 25.95-30.34C24.56-29.57 23.41-28.50 22.50-27.14C21.59-28.50 20.43-29.57 19.04-30.34C17.64-31.11 16.08-31.50 14.34-31.50C13.15-31.50 11.98-31.29 10.85-30.87C9.71-30.45 8.72-29.88 7.88-29.18L7.88-31.50L4.50-31.50L4.50-21.94L4.50 0L7.88 0L7.88-21.94C7.88-23.70 8.50-25.17 9.76-26.35C11.01-27.53 12.54-28.13 14.34-28.13C16.17-28.13 17.71-27.54 18.95-26.37C20.19-25.20 20.81-23.72 20.81-21.94L20.81 0L24.19 0L24.19-21.94C24.19-23.74 24.81-25.22 26.05-26.38C27.29-27.54 28.83-28.13 30.66-28.13C32.48-28.13 34.02-27.54 35.26-26.37C36.50-25.20 37.13-23.72 37.13-21.94L37.13 0Z"/></svg>