<svg xmlns="http://www.w3.org/2000/svg" xmlns:xlink="http://www.w3.org/1999/xlink" width="45" height="72"><path d="M37.97-9.60C37.97-11.85 36.86-13.81 34.65-15.49C32.43-17.16 29.88-18 27-18L18-18C15.30-18 13.42-18.19 12.34-18.56C10.54-19.20 9.63-20.51 9.63-22.50C9.63-24.56 10.54-26.06 12.34-27C13.77-27.75 15.66-28.13 18-28.13L27-28.13C28.55-28.13 30.29-27.89 32.24-27.42C33.43-27.14 34.69-26.77 36-26.30L36-29.71C35.11-30.11 33.97-30.47 32.59-30.80C30.64-31.27 28.78-31.50 27-31.50L18-31.50C14.84-31.50 12.16-30.79 9.98-29.36C7.50-27.71 6.26-25.43 6.26-22.50C6.26-19.45 7.50-17.30 9.98-16.03C11.84-15.09 14.51-14.63 18-14.63L27-14.63C29.09-14.63 30.87-14.17 32.36-13.27C33.85-12.37 34.59-11.14 34.59-9.60C34.59-7.46 33.82-5.86 32.27-4.78C30.94-3.84 29.18-3.38 27-3.38L18-3.38C15.89-3.38 13.57-3.69 11.04-4.32C9.45-4.72 7.85-5.21 6.26-5.80L6.26-2.29C7.97-1.56 9.86-1.00 11.94-0.60C14.01-0.20 16.03 0 18 0L27 0C29.93 0 32.49-0.92 34.68-2.76C36.87-4.60 37.97-6.88 37.97-9.60Z"/></svg>