<svg xmlns="http://www.w3.org/2000/svg" xmlns:xlink="http://www.w3.org/1999/xlink" width="45" height="72"><path d="M36.95-2.57L36.95-5.91C36.01-5.04 34.87-4.40 33.52-3.99C32.17-3.58 30.69-3.38 29.07-3.38C26.45-3.38 24.09-4.34 22.01-6.26C20.09-8.04 19.13-9.82 19.13-11.60L19.13-28.13L32.63-28.13L32.63-31.50L19.13-31.50L19.13-45L15.75-45L15.75-31.50L9-31.50L9-28.13L15.75-28.13L15.75-11.25C15.75-8.18 17.06-5.54 19.67-3.32C22.28-1.11 25.48 0 29.25 0C30.59 0 31.97-0.27 33.40-0.81C34.41-1.18 35.59-1.77 36.95-2.57Z"/></svg>