<svg xmlns="http://www.w3.org/2000/svg" xmlns:xlink="http://www.w3.org/1999/xlink" width="45" height="72"><path d="M38.25-28.13L38.25-31.50L34.88-31.50L34.88-28.13C34.88-24.96 34.46-22.34 33.64-20.25C32.94-18.47 31.63-16.34 29.71-13.85C25.14-7.95 22.73-4.83 22.50-4.50C20.09-7.62 17.67-10.75 15.26-13.89C13.29-16.42 11.98-18.54 11.32-20.25C10.52-22.29 10.13-24.91 10.13-28.13L10.13-31.50L6.75-31.50L6.75-28.13C6.75-23.79 7.43-20.19 8.79-17.33C9.59-15.64 11.30-13.21 13.92-10.02C16.80-6.53 19.10-3.19 20.81 0L24.19 0C25.95-3.23 28.24-6.59 31.08-10.05C33.80-13.36 35.52-15.79 36.25-17.33C37.58-20.14 38.25-23.74 38.25-28.13Z"/></svg>