<svg xmlns="http://www.w3.org/2000/svg" xmlns:xlink="http://www.w3.org/1999/xlink" width="45" height="72"><path d="M40.50-9.84L40.50-31.50L37.13-31.50L37.13-9.84C37.13-8.06 36.49-6.54 35.23-5.27C33.96-4.01 32.44-3.38 30.66-3.38C28.87-3.38 27.35-4.01 26.09-5.27C24.82-6.54 24.19-8.06 24.19-9.84L24.19-27L20.81-27L20.81-9.84C20.81-8.06 20.18-6.54 18.91-5.27C17.65-4.01 16.13-3.38 14.34-3.38C12.56-3.38 11.04-4.01 9.77-5.27C8.51-6.54 7.88-8.06 7.88-9.84L7.88-31.50L4.50-31.50L4.50-9.84C4.50-7.13 5.46-4.80 7.38-2.88C9.30-0.96 11.63 0 14.34 0C16.08 0 17.64-0.39 19.04-1.16C20.43-1.93 21.59-2.99 22.50-4.32C23.41-2.96 24.56-1.90 25.95-1.14C27.33-0.38 28.90 0 30.66 0C33.37 0 35.70-0.96 37.62-2.88C39.54-4.80 40.50-7.13 40.50-9.84Z"/></svg>