<svg xmlns="http://www.w3.org/2000/svg" xmlns:xlink="http://www.w3.org/1999/xlink" width="45" height="72"><path d="M38.25 0L38.25-3.38L34.88-3.38C34.20-3.38 33.28-3.96 32.13-5.13C31.17-6.12 29.92-7.64 28.37-9.70C27.13-11.39 25.69-13.41 24.05-15.75C25.90-18.42 27.34-20.45 28.37-21.83C29.85-23.80 31.10-25.31 32.13-26.37C33.28-27.54 34.20-28.13 34.88-28.13L38.25-28.13L38.25-31.50L34.88-31.50C34.03-31.50 32.91-30.83 31.50-29.50C30.33-28.37 28.90-26.71 27.21-24.50C26.04-22.96 24.47-20.78 22.50-17.96C20.60-20.68 19.02-22.88 17.75-24.54C16.09-26.74 14.66-28.41 13.46-29.53C12.08-30.84 10.97-31.50 10.13-31.50L6.75-31.50L6.75-28.13L10.13-28.13C10.80-28.13 11.72-27.54 12.87-26.37C13.83-25.38 15.08-23.86 16.63-21.80C17.87-20.11 19.31-18.09 20.95-15.75C19.10-13.08 17.66-11.05 16.63-9.67C15.15-7.70 13.90-6.19 12.87-5.13C11.72-3.96 10.80-3.38 10.13-3.38L6.75-3.38L6.75 0L10.13 0C10.97 0 12.09-0.67 13.50-2.00C14.67-3.13 16.10-4.79 17.79-7.00C18.96-8.54 20.53-10.72 22.50-13.54C24.40-10.82 25.98-8.62 27.25-6.96C28.91-4.76 30.34-3.09 31.54-1.97C32.92-0.66 34.03 0 34.88 0Z"/></svg>