<svg xmlns="http://www.w3.org/2000/svg" xmlns:xlink="http://www.w3.org/1999/xlink" width="45" height="72"><path d="M30.27 4.78L30.27 2.07C28.37 1.86 26.88 1.24 25.80 0.21C24.73-0.82 24.19-2.07 24.19-3.55L24.19-12.94C24.19-14.39 23.75-15.66 22.89-16.73C22.21-17.58 20.89-18.69 18.95-20.07C20.71-21.27 22.02-22.43 22.89-23.55C23.75-24.68 24.19-25.83 24.19-27L24.19-36.39C24.19-37.89 24.72-39.15 25.79-40.17C26.85-41.19 28.35-41.80 30.27-42.01L30.27-44.72C27.74-44.44 25.51-43.49 23.57-41.89C21.64-40.28 20.67-38.45 20.67-36.39L20.67-27C20.67-25.57 19.91-24.27 18.39-23.10C16.86-21.93 15.19-21.34 13.36-21.34L8.58-21.34L8.58-18.60L13.36-18.60C15.16-18.60 16.83-18.01 18.37-16.82C19.90-15.64 20.67-14.34 20.67-12.94L20.67-3.55C20.67-1.46 21.66 0.40 23.63 2.04C25.50 3.59 27.71 4.50 30.27 4.78Z"/></svg>