<svg xmlns="http://www.w3.org/2000/svg" xmlns:xlink="http://www.w3.org/1999/xlink" width="45" height="72"><path d="M36.46-18.60L36.46-21.34L31.68-21.34C29.85-21.34 28.17-21.93 26.63-23.12C25.10-24.30 24.33-25.59 24.33-27L24.33-36.39C24.33-38.47 23.34-40.34 21.38-41.98C19.52-43.52 17.32-44.44 14.77-44.72L14.77-42.01C16.64-41.80 18.12-41.18 19.20-40.15C20.27-39.12 20.81-37.86 20.81-36.39L20.81-27C20.81-25.83 21.25-24.68 22.13-23.55C23.01-22.43 24.34-21.27 26.12-20.07C24.18-18.69 22.85-17.57 22.15-16.70C21.26-15.60 20.81-14.34 20.81-12.94L20.81-3.55C20.81-2.05 20.28-0.79 19.21 0.23C18.15 1.25 16.66 1.86 14.77 2.07L14.77 4.78C17.32 4.50 19.55 3.56 21.46 1.95C23.37 0.35 24.33-1.49 24.33-3.55L24.33-12.94C24.33-14.34 25.10-15.64 26.63-16.82C28.17-18.01 29.85-18.60 31.68-18.60Z"/></svg>