<svg xmlns="http://www.w3.org/2000/svg" xmlns:xlink="http://www.w3.org/1999/xlink" width="45" height="72"><path d="M38.25-54L34.88-54C34.59-52.31 34.07-50.94 33.29-49.89C32.40-48.67 31.28-48.06 29.92-48.06C28.68-48.06 27.32-48.56 25.84-49.55C24.36-50.55 22.93-51.53 21.55-52.49C19.77-53.50 17.88-54 15.89-54C13.83-54 11.81-53.10 9.84-51.29C7.78-49.39 6.75-47.30 6.75-45L10.13-45C10.13-46.71 10.66-48.08 11.72-49.10C12.79-50.12 14.18-50.63 15.89-50.63C17.13-50.63 18.52-50.13 20.04-49.15C21.40-48.23 22.77-47.33 24.15-46.44C25.96-45.48 27.89-45 29.95-45C31.99-45 33.88-45.91 35.63-47.72C37.38-49.54 38.25-51.63 38.25-54Z"/></svg>