<svg xmlns="http://www.w3.org/2000/svg" xmlns:xlink="http://www.w3.org/1999/xlink" width="45" height="72"><path d="M38.25-3.02L38.25-7.03C36.56-5.81 34.83-4.90 33.05-4.29C31.27-3.68 29.25-3.38 27-3.38C22.17-3.38 18.12-5.32 14.84-9.21C11.70-12.94 10.13-17.37 10.13-22.50C10.13-27.63 11.70-32.06 14.84-35.79C18.12-39.68 22.17-41.63 27-41.63C29.23-41.63 31.29-41.30 33.19-40.64C34.92-40.05 36.61-39.16 38.25-37.97L38.25-41.98C36.49-43.01 34.73-43.77 32.98-44.26C31.22-44.75 29.23-45 27-45C21.23-45 16.38-42.73 12.45-38.18C8.65-33.80 6.75-28.57 6.75-22.50C6.75-16.76 8.53-11.71 12.08-7.35C15.63-2.99 20.12-0.56 25.56-0.07C25.75 1.22 26.12 2.41 26.68 3.52C27.18 4.48 27.93 5.46 28.93 6.47C30.06 7.24 30.75 7.77 31.01 8.05C31.64 8.73 31.96 9.55 31.96 10.51C31.96 11.50 31.56 12.33 30.78 13.03C29.99 13.72 29.07 14.06 28.02 14.06C27.93 14.06 27.76 14.05 27.53 14.03C26.61 14.03 25.79 13.61 25.07 12.76C24.25 11.80 23.84 10.56 23.84 9.04L20.81 9C20.81 11.32 21.43 13.23 22.66 14.73C23.89 16.23 25.45 17.06 27.35 17.23C27.52 17.25 27.77 17.26 28.13 17.26C29.98 17.26 31.59 16.63 32.96 15.38C34.33 14.13 35.10 12.59 35.26 10.76C35.26 9.33 34.85 8.04 34.03 6.89C33.68 6.40 33.05 5.77 32.13 4.99C31.38 4.43 30.79 3.88 30.34 3.34C29.54 2.38 28.99 1.25 28.69-0.04C30.38-0.04 32.07-0.33 33.79-0.91C35.19-1.41 36.68-2.11 38.25-3.02Z"/></svg>