<svg xmlns="http://www.w3.org/2000/svg" xmlns:xlink="http://www.w3.org/1999/xlink" width="45" height="72"><path d="M36-49.50C36-51.75 35.81-53.06 35.44-53.44C35.06-53.81 33.75-54 31.50-54C29.25-54 27.94-53.81 27.56-53.44C27.19-53.06 27-51.75 27-49.50C27-47.25 27.19-45.94 27.56-45.56C27.94-45.19 29.25-45 31.50-45C33.75-45 35.06-45.19 35.44-45.56C35.81-45.94 36-47.25 36-49.50ZM18-49.50C18-51.75 17.81-53.06 17.44-53.44C17.06-53.81 15.75-54 13.50-54C11.25-54 9.94-53.81 9.56-53.44C9.19-53.06 9-51.75 9-49.50C9-47.25 9.19-45.94 9.56-45.56C9.94-45.19 11.25-45 13.50-45C15.75-45 17.06-45.19 17.44-45.56C17.81-45.94 18-47.25 18-49.50ZM38.25 0L38.25-31.50L34.88-31.50L34.88-15.75C34.88-12.33 33.67-9.41 31.25-7.00C28.84-4.58 25.92-3.38 22.50-3.38C19.08-3.38 16.16-4.58 13.75-7.00C11.33-9.41 10.13-12.33 10.13-15.75L10.13-31.50L6.75-31.50L6.75-15.75C6.75-11.39 8.29-7.68 11.36-4.61C14.43-1.54 18.14 0 22.50 0C25.10 0 27.48-0.55 29.64-1.65C31.65-2.66 33.40-4.11 34.88-6.01L34.88 0Z"/></svg>