<svg xmlns="http://www.w3.org/2000/svg" xmlns:xlink="http://www.w3.org/1999/xlink" width="45" height="72"><path d="M27.28-43.35C27.28-43.58 27.16-43.91 26.93-44.33L20.53-52.66C20.25-53.06 19.89-53.38 19.44-53.63C19.00-53.88 18.52-54 18-54C17.13-54 16.41-53.70 15.82-53.09C15.23-52.48 14.94-51.74 14.94-50.87C14.94-49.96 15.32-49.21 16.07-48.62L24.75-42.05C25.03-41.88 25.21-41.78 25.29-41.73C25.38-41.68 25.51-41.66 25.70-41.66C26.24-41.66 26.64-41.82 26.89-42.15C27.15-42.48 27.28-42.88 27.28-43.35ZM30.38 0L30.38-31.50L14.06-31.50L14.06-28.13L27-28.13L27 0Z"/></svg>