<svg xmlns="http://www.w3.org/2000/svg" xmlns:xlink="http://www.w3.org/1999/xlink" width="45" height="72"><path d="M36-49.50C36-51.75 35.81-53.06 35.44-53.44C35.06-53.81 33.75-54 31.50-54C29.25-54 27.94-53.81 27.56-53.44C27.19-53.06 27-51.75 27-49.50C27-47.25 27.19-45.94 27.56-45.56C27.94-45.19 29.25-45 31.50-45C33.75-45 35.06-45.19 35.44-45.56C35.81-45.94 36-47.25 36-49.50ZM18-49.50C18-51.75 17.81-53.06 17.44-53.44C17.06-53.81 15.75-54 13.50-54C11.25-54 9.94-53.81 9.56-53.44C9.19-53.06 9-51.75 9-49.50C9-47.25 9.19-45.94 9.56-45.56C9.94-45.19 11.25-45 13.50-45C15.75-45 17.06-45.19 17.44-45.56C17.81-45.94 18-47.25 18-49.50ZM38.25 0L38.25-15.19C38.25-19.13 37.57-22.37 36.21-24.93C35.41-26.45 33.70-28.64 31.08-31.50C28.20-34.64 25.90-37.64 24.19-40.50L20.81-40.50C19.05-37.59 16.76-34.58 13.92-31.46C11.23-28.51 9.50-26.32 8.75-24.89C7.42-22.36 6.75-19.13 6.75-15.19L6.75 0L10.13 0L10.13-13.39L34.88-13.39L34.88 0ZM34.88-16.21L10.13-16.21C10.13-18.71 10.54-20.84 11.36-22.57C12.04-24.00 13.35-25.83 15.29-28.05C19.02-32.32 21.42-35.12 22.50-36.46C23.20-35.59 25.62-32.79 29.74-28.05C31.71-25.80 33.02-23.98 33.68-22.57C34.48-20.88 34.88-18.76 34.88-16.21Z"/></svg>