<svg xmlns="http://www.w3.org/2000/svg" xmlns:xlink="http://www.w3.org/1999/xlink" width="45" height="72"><path d="M29.25-47.25C29.25-49.12 28.59-50.72 27.28-52.03C25.97-53.34 24.37-54 22.50-54C20.63-54 19.03-53.34 17.72-52.03C16.41-50.72 15.75-49.12 15.75-47.25C15.75-45.38 16.41-43.78 17.72-42.47C19.03-41.16 20.63-40.50 22.50-40.50C24.37-40.50 25.97-41.16 27.28-42.47C28.59-43.78 29.25-45.38 29.25-47.25ZM35.09 0L35.09-13.50C35.09-16.99 34.55-19.87 33.47-22.15C32.88-23.39 31.51-25.32 29.36-27.95C27.08-30.74 25.24-33.42 23.84-36L21.16-36C19.78-33.47 17.93-30.77 15.61-27.91C13.45-25.27 12.08-23.33 11.50-22.11C10.44-19.89 9.91-17.02 9.91-13.50L9.91 0L12.59 0L12.59-11.88L32.41-11.88L32.41 0ZM26.72-47.25C26.72-46.08 26.31-45.08 25.49-44.26C24.67-43.44 23.67-43.03 22.50-43.03C21.33-43.03 20.33-43.44 19.51-44.26C18.69-45.08 18.28-46.08 18.28-47.25C18.28-48.42 18.69-49.42 19.51-50.24C20.33-51.06 21.33-51.47 22.50-51.47C23.67-51.47 24.67-51.06 25.49-50.24C26.31-49.42 26.72-48.42 26.72-47.25ZM32.41-14.38L12.59-14.38C12.59-16.63 12.91-18.53 13.57-20.07C14.09-21.27 15.14-22.89 16.73-24.93C19.76-28.77 21.68-31.25 22.50-32.38C23.04-31.65 24.97-29.17 28.30-24.93C29.87-22.93 30.93-21.30 31.46-20.04C32.10-18.56 32.41-16.68 32.41-14.38Z"/></svg>