<svg xmlns="http://www.w3.org/2000/svg" xmlns:xlink="http://www.w3.org/1999/xlink" width="45" height="72"><path d="M30.06-50.87C30.06-51.71 29.76-52.45 29.16-53.07C28.56-53.69 27.84-54 27-54C26.53-54 26.06-53.87 25.58-53.60C25.10-53.33 24.73-53.02 24.47-52.66L18.07-44.33C17.84-43.91 17.72-43.58 17.72-43.35C17.72-42.86 17.85-42.45 18.12-42.13C18.39-41.82 18.79-41.66 19.30-41.66C19.46-41.66 19.59-41.68 19.67-41.71C19.75-41.75 19.95-41.86 20.25-42.05L28.93-48.62C29.68-49.21 30.06-49.96 30.06-50.87ZM38.25 0L38.25-3.38L10.13-3.38L10.13-17.19L31.50-17.19L31.50-20.57L10.13-20.57L10.13-32.63L38.25-32.63L38.25-36L6.75-36L6.75 0Z"/></svg>