<svg xmlns="http://www.w3.org/2000/svg" xmlns:xlink="http://www.w3.org/1999/xlink" width="45" height="72"><path d="M38.25-9L38.25-12.38L24.19-12.38L24.19-13.50C25.13-15.00 26.17-16.63 27.32-18.39L30.06-22.50L38.25-22.50L38.25-25.88L32.31-25.88C34.44-29.11 35.91-31.71 36.70-33.68C37.73-36.21 38.25-38.86 38.25-41.63L38.25-45L34.84-45L34.88-41.63C34.88-38.74 34.36-36 33.33-33.40C32.51-31.34 31.12-28.83 29.18-25.88L15.79-25.88C13.79-28.92 12.41-31.43 11.64-33.40C10.63-35.98 10.13-38.72 10.13-41.63L10.13-45L6.75-45L6.75-41.63C6.75-38.93 7.28-36.29 8.33-33.71C9.18-31.65 10.64-29.04 12.73-25.88L6.75-25.88L6.75-22.50L14.98-22.50C15.56-21.59 16.16-20.68 16.77-19.79C17.85-18.18 18.50-17.18 18.74-16.80C19.35-15.87 20.04-14.77 20.81-13.50L20.81-12.38L6.75-12.38L6.75-9L20.81-9L20.81 0L24.19 0L24.19-9ZM26.93-22.50C26.30-21.59 25.57-20.51 24.75-19.27C23.93-18.02 23.18-16.85 22.50-15.75C21.68-17.09 21.09-18.01 20.74-18.53C20.09-19.51 19.20-20.84 18.07-22.50Z"/></svg>