<svg xmlns="http://www.w3.org/2000/svg" xmlns:xlink="http://www.w3.org/1999/xlink" width="45" height="72"><path d="M36-0.04L36-3.59C34.20-3.75 32.92-4.32 32.17-5.31C31.58-6.08 31.29-7.21 31.29-8.68L31.29-13.82L36-13.82L36-17.37L31.29-17.37L31.29-26.58L26.79-26.58C27.59-28.10 28.15-29.44 28.48-30.59C28.80-31.73 28.97-32.87 28.97-34.00C28.97-37.00 28.03-39.53 26.16-41.59C24.07-43.86 21.28-45 17.79-45L9-45L9 0L12.59 0L12.59-23.03L17.79-23.03C19.62-23.03 21.29-23.37 22.80-24.05C24.31-24.73 25.96-25.92 27.74-27.63L27.74-17.37L23.03-17.37L23.03-13.82L27.74-13.82L27.74-8.68C27.74-5.75 28.39-3.58 29.69-2.16C30.99-0.74 33.09-0.04 36-0.04ZM25.70-33.43C25.70-30.93 25.11-29.16 23.94-28.13C22.77-27.09 20.72-26.58 17.79-26.58L12.59-26.58L12.59-41.59L17.79-41.59C20.55-41.59 22.58-40.91 23.87-39.55C25.09-38.26 25.70-36.22 25.70-33.43Z"/></svg>