<svg xmlns="http://www.w3.org/2000/svg" xmlns:xlink="http://www.w3.org/1999/xlink" width="45" height="72"><path d="M30.06-50.87C30.06-51.71 29.76-52.45 29.16-53.07C28.56-53.69 27.84-54 27-54C26.53-54 26.06-53.87 25.58-53.60C25.10-53.33 24.73-53.02 24.47-52.66L18.07-44.33C17.84-43.91 17.72-43.58 17.72-43.35C17.72-42.86 17.85-42.45 18.12-42.13C18.39-41.82 18.79-41.66 19.30-41.66C19.46-41.66 19.59-41.68 19.67-41.71C19.75-41.75 19.95-41.86 20.25-42.05L28.93-48.62C29.68-49.21 30.06-49.96 30.06-50.87ZM38.25 0L38.25-31.50L34.88-31.50L34.88-15.75C34.88-12.33 33.67-9.41 31.25-7.00C28.84-4.58 25.92-3.38 22.50-3.38C19.08-3.38 16.16-4.58 13.75-7.00C11.33-9.41 10.13-12.33 10.13-15.75L10.13-31.50L6.75-31.50L6.75-15.75C6.75-11.39 8.29-7.68 11.36-4.61C14.43-1.54 18.14 0 22.50 0C25.10 0 27.48-0.55 29.64-1.65C31.65-2.66 33.40-4.11 34.88-6.01L34.88 0Z"/></svg>