<svg xmlns="http://www.w3.org/2000/svg" xmlns:xlink="http://www.w3.org/1999/xlink" width="45" height="72"><path d="M33.75-27L33.75-49.50L30.52-49.50L30.52-46.13C29.44-47.23 28.25-48.06 26.95-48.64C25.65-49.21 24.16-49.50 22.50-49.50C19.38-49.50 16.73-48.40 14.54-46.21C12.35-44.02 11.25-41.37 11.25-38.25C11.25-35.16 12.35-32.51 14.55-30.30C16.76-28.10 19.41-27 22.50-27C24.12-27 25.60-27.30 26.95-27.90C28.29-28.49 29.48-29.33 30.52-30.41L30.52-27ZM30.38-38.29C30.38-35.82 29.67-33.89 28.27-32.48C26.86-31.08 24.94-30.38 22.50-30.38C20.06-30.38 18.14-31.08 16.73-32.48C15.33-33.89 14.63-35.81 14.63-38.25C14.63-40.69 15.33-42.61 16.73-44.02C18.14-45.42 20.06-46.13 22.50-46.13C24.96-46.13 26.89-45.43 28.28-44.03C29.68-42.64 30.38-40.72 30.38-38.29Z"/></svg>