<svg xmlns="http://www.w3.org/2000/svg" xmlns:xlink="http://www.w3.org/1999/xlink" width="45" height="72"><path d="M33.75-38.25C33.75-41.34 32.65-43.99 30.45-46.20C28.24-48.40 25.59-49.50 22.50-49.50C19.41-49.50 16.76-48.40 14.55-46.20C12.35-43.99 11.25-41.34 11.25-38.25C11.25-35.16 12.35-32.51 14.55-30.30C16.76-28.10 19.41-27 22.50-27C25.59-27 28.24-28.10 30.45-30.30C32.65-32.51 33.75-35.16 33.75-38.25ZM30.38-38.25C30.38-35.79 29.68-33.86 28.28-32.47C26.89-31.07 24.96-30.38 22.50-30.38C20.06-30.38 18.14-31.08 16.73-32.48C15.33-33.89 14.63-35.81 14.63-38.25C14.63-40.69 15.33-42.61 16.73-44.02C18.14-45.42 20.06-46.13 22.50-46.13C24.96-46.13 26.89-45.43 28.28-44.03C29.68-42.64 30.38-40.71 30.38-38.25Z"/></svg>