<svg xmlns="http://www.w3.org/2000/svg" xmlns:xlink="http://www.w3.org/1999/xlink" width="45" height="72"><path d="M27-45C27-47.25 26.81-48.56 26.44-48.94C26.06-49.31 24.75-49.50 22.50-49.50C20.25-49.50 18.94-49.31 18.56-48.94C18.19-48.56 18-47.25 18-45C18-42.75 18.19-41.44 18.56-41.06C18.94-40.69 20.25-40.50 22.50-40.50C24.75-40.50 26.06-40.69 26.44-41.06C26.81-41.44 27-42.75 27-45ZM38.25-9C38.25-11.60 37.14-14.04 34.91-16.31C33.43-17.81 31.76-19.02 29.88-19.93C27.68-21.04 26.18-22.37 25.38-23.94C24.59-25.51 24.19-28.03 24.19-31.50L20.81-31.50C20.81-28.15 21.13-25.69 21.76-24.12C22.39-22.55 23.64-20.98 25.49-19.41C27.60-17.91 29.71-16.42 31.82-14.94C33.86-13.32 34.88-11.34 34.88-9C34.88-6.12 33.71-3.71 31.38-1.78C29.04 0.16 26.09 1.13 22.50 1.13C19.27 1.13 16.36 0 13.78-2.25C11.34-4.38 10.13-6.63 10.13-9L6.75-9C6.75-5.67 8.31-2.61 11.43 0.18C14.66 3.06 18.35 4.50 22.50 4.50C26.95 4.50 30.69 3.16 33.71 0.49C36.74-2.18 38.25-5.34 38.25-9Z"/></svg>