<svg xmlns="http://www.w3.org/2000/svg" xmlns:xlink="http://www.w3.org/1999/xlink" width="45" height="72"><path d="M18.42-21.38L18.42-24.54L12.80-24.57L12.80-44.93L3.97-39.73L3.97-36.04L9.56-39.30L9.56-24.57L3.97-24.57L3.97-21.38ZM38.32-42.75L34.45-42.75L7.07 0L10.93 0ZM40.89 0L40.89-3.20L27.56-3.20C27.73-4.25 28.31-5.14 29.32-5.87C29.60-6.08 30.75-6.71 32.77-7.77L34.66-8.79C36.63-9.80 38.10-10.78 39.06-11.74C40.28-12.96 40.89-14.30 40.89-15.75C40.89-17.72 40.09-19.41 38.50-20.83C36.90-22.25 34.93-22.96 32.59-22.96C30.34-22.96 28.39-22.16 26.75-20.57C25.11-18.97 24.29-17.10 24.29-14.94L27.53-14.94C27.53-16.30 28.03-17.44 29.02-18.37C30.02-19.29 31.21-19.76 32.59-19.76C34.04-19.76 35.25-19.38 36.21-18.63C37.17-17.88 37.65-16.92 37.65-15.75C37.65-14.74 37.17-13.86 36.21-13.11C36.05-12.97 34.93-12.33 32.87-11.18L31.01-10.20C28.78-9.07 27.16-7.99 26.16-6.96C24.91-5.67 24.29-4.15 24.29-2.39L24.29 0Z"/></svg>