<svg xmlns="http://www.w3.org/2000/svg" xmlns:xlink="http://www.w3.org/1999/xlink" width="45" height="72"><path d="M27-40.50C27-42.75 26.81-44.06 26.44-44.44C26.06-44.81 24.75-45 22.50-45C20.25-45 18.94-44.81 18.56-44.44C18.19-44.06 18-42.75 18-40.50C18-38.25 18.19-36.94 18.56-36.56C18.94-36.19 20.25-36 22.50-36C24.75-36 26.06-36.19 26.44-36.56C26.81-36.94 27-38.25 27-40.50ZM27 0C27-3.42 26.96-6.30 26.88-8.65C26.79-10.99 26.60-13.36 26.30-15.75C25.99-18.14 25.48-21.14 24.75-24.75C24.61-25.38 24.34-25.92 23.94-26.35C23.54-26.78 23.06-27 22.50-27C21.89-27 21.40-26.79 21.02-26.37C20.65-25.95 20.39-25.41 20.25-24.75C19.45-20.65 18.91-17.45 18.63-15.15C18.35-12.86 18.18-10.72 18.11-8.74C18.04-6.76 18-3.84 18 0C18 2.25 18.19 3.56 18.56 3.94C18.94 4.31 20.25 4.50 22.50 4.50C24.75 4.50 26.06 4.31 26.44 3.94C26.81 3.56 27 2.25 27 0Z"/></svg>