<svg xmlns="http://www.w3.org/2000/svg" xmlns:xlink="http://www.w3.org/1999/xlink" width="45" height="72"><path d="M39.27-3.23C39.53-3.45 39.66-3.75 39.66-4.15C39.66-4.52 39.53-4.84 39.27-5.10C35.54-8.66 33.17-10.95 32.15-11.97C31.13-12.99 29.19-15.00 26.33-18C29.19-21.00 31.13-23.01 32.15-24.03C33.17-25.05 35.54-27.34 39.27-30.90C39.53-31.16 39.66-31.49 39.66-31.89C39.66-32.29 39.53-32.59 39.27-32.80C39.01-33.06 38.68-33.19 38.29-33.19C37.93-33.19 37.61-33.06 37.30-32.80L22.50-18L37.30-3.20C37.56-2.94 37.87-2.81 38.25-2.81C38.65-2.81 38.99-2.95 39.27-3.23ZM18.98-3.23C19.27-3.45 19.41-3.75 19.41-4.15C19.41-4.52 19.27-4.84 18.98-5.10C15.33-8.61 12.96-10.91 11.88-11.99C10.80-13.07 8.87-15.07 6.08-18C8.87-20.93 10.80-22.93 11.88-24.01C12.96-25.09 15.33-27.39 18.98-30.90C19.27-31.16 19.41-31.49 19.41-31.89C19.41-32.29 19.27-32.59 18.98-32.80C18.73-33.06 18.41-33.19 18.04-33.19C17.68-33.19 17.36-33.06 17.05-32.80L2.25-18L17.05-3.20C17.31-2.94 17.62-2.81 18-2.81C18.40-2.81 18.73-2.95 18.98-3.23Z"/></svg>