<svg xmlns="http://www.w3.org/2000/svg" xmlns:xlink="http://www.w3.org/1999/xlink" width="45" height="72"><path d="M40.50-18L28.16-30.34C27.95-30.55 27.68-30.66 27.35-30.66C27.02-30.66 26.75-30.56 26.54-30.36C26.33-30.16 26.23-29.89 26.23-29.57C26.23-29.24 26.33-28.97 26.54-28.76C29.45-25.97 31.42-24.06 32.45-23.03C33.48-22.00 35.10-20.32 37.30-18C36.27-16.92 35.11-15.71 33.82-14.38C32.53-13.04 31.59-12.09 31.01-11.53C30.84-11.37 29.36-9.94 26.54-7.24C26.33-7.03 26.23-6.76 26.23-6.43C26.23-6.13 26.33-5.88 26.54-5.70C26.75-5.46 27.02-5.34 27.35-5.34C27.68-5.34 27.95-5.45 28.16-5.66ZM22.50-18L10.16-30.34C9.95-30.55 9.68-30.66 9.35-30.66C9.02-30.66 8.75-30.56 8.54-30.36C8.33-30.16 8.23-29.89 8.23-29.57C8.23-29.24 8.33-28.97 8.54-28.76C11.45-25.97 13.42-24.06 14.45-23.03C15.48-22.00 17.10-20.32 19.30-18C18.27-16.92 17.11-15.71 15.82-14.38C14.53-13.04 13.59-12.09 13.01-11.53C12.84-11.37 11.36-9.94 8.54-7.24C8.33-7.03 8.23-6.76 8.23-6.43C8.23-6.13 8.33-5.88 8.54-5.70C8.75-5.46 9.02-5.34 9.35-5.34C9.68-5.34 9.95-5.45 10.16-5.66Z"/></svg>