<svg xmlns="http://www.w3.org/2000/svg" xmlns:xlink="http://www.w3.org/1999/xlink" width="45" height="72"><path d="M43.38-37.34L43.38-43.66L35.37-43.66L35.37-37.34ZM32.20-46.34L32.20-52.66L24.19-52.66L24.19-46.34ZM43.38-19.34L43.38-25.66L35.37-25.66L35.37-19.34ZM32.20-28.34L32.20-34.66L24.19-34.66L24.19-28.34ZM20.88-37.34L20.88-43.66L12.87-43.66L12.87-37.34ZM9.63-46.34L9.63-52.66L1.62-52.66L1.62-46.34ZM43.38-1.34L43.38-7.66L35.37-7.66L35.37-1.34ZM32.20-10.34L32.20-16.66L24.19-16.66L24.19-10.34ZM20.88-19.34L20.88-25.66L12.87-25.66L12.87-19.34ZM9.63-28.34L9.63-34.66L1.62-34.66L1.62-28.34ZM43.38 16.66L43.38 10.34L35.37 10.34L35.37 16.66ZM32.20 7.66L32.20 1.34L24.19 1.34L24.19 7.66ZM20.88-1.34L20.88-7.66L12.87-7.66L12.87-1.34ZM9.63-10.34L9.63-16.66L1.62-16.66L1.62-10.34ZM20.88 16.66L20.88 10.34L12.87 10.34L12.87 16.66ZM9.63 7.66L9.63 1.34L1.62 1.34L1.62 7.66Z"/></svg>