<svg xmlns="http://www.w3.org/2000/svg" xmlns:xlink="http://www.w3.org/1999/xlink" width="45" height="72"><path d="M45-36L45-45L33.75-45L33.75-36ZM33.75-45L33.75-54L22.50-54L22.50-45ZM45-18L45-27L33.75-27L33.75-18ZM33.75-27L33.75-36L22.50-36L22.50-27ZM22.50-36L22.50-45L11.25-45L11.25-36ZM11.18-45L11.18-54L-0.07-54L-0.07-45ZM45 0L45-9L33.75-9L33.75 0ZM33.75-9L33.75-18L22.50-18L22.50-9ZM22.50-18L22.50-27L11.25-27L11.25-18ZM11.25-27L11.25-36L0-36L0-27ZM45 18L45 9L33.75 9L33.75 18ZM33.75 9L33.75 0L22.50 0L22.50 9ZM22.50 0L22.50-9L11.25-9L11.25 0ZM11.25-9L11.25-18L0-18L0-9ZM22.50 18L22.50 9L11.25 9L11.25 18ZM11.25 9L11.25 0L0 0L0 9Z"/></svg>