<svg xmlns="http://www.w3.org/2000/svg" xmlns:xlink="http://www.w3.org/1999/xlink" width="45" height="72"><path d="M45 18L45-54L0-54L0 18ZM43.38-37.34L35.37-37.34L35.37-43.66L43.38-43.66ZM32.20-46.34L24.19-46.34L24.19-52.66L32.20-52.66ZM43.38-19.34L35.37-19.34L35.37-25.66L43.38-25.66ZM32.20-28.34L24.19-28.34L24.19-34.66L32.20-34.66ZM20.88-37.34L12.87-37.34L12.87-43.66L20.88-43.66ZM9.63-46.34L1.62-46.34L1.62-52.66L9.63-52.66ZM43.38-1.34L35.37-1.34L35.37-7.66L43.38-7.66ZM32.20-10.34L24.19-10.34L24.19-16.66L32.20-16.66ZM20.88-19.34L12.87-19.34L12.87-25.66L20.88-25.66ZM9.63-28.34L1.62-28.34L1.62-34.66L9.63-34.66ZM43.38 16.66L35.37 16.66L35.37 10.34L43.38 10.34ZM32.20 7.66L24.19 7.66L24.19 1.34L32.20 1.34ZM20.88-1.34L12.87-1.34L12.87-7.66L20.88-7.66ZM9.63-10.34L1.62-10.34L1.62-16.66L9.63-16.66ZM20.88 16.66L12.87 16.66L12.87 10.34L20.88 10.34ZM9.63 7.66L1.62 7.66L1.62 1.34L9.63 1.34Z"/></svg>