<svg xmlns="http://www.w3.org/2000/svg" xmlns:xlink="http://www.w3.org/1999/xlink" width="45" height="72"><path d="M38.25-0.04L38.25-3.59C35.44-3.91 33.15-5.31 31.39-7.77C29.75-10.07 28.93-12.73 28.93-15.75C28.93-18.68 29.82-21.35 31.59-23.77C33.36-26.18 35.58-27.55 38.25-27.88L38.25-31.46C36.16-31.28 34.27-30.60 32.55-29.44C30.84-28.28 29.17-26.53 27.53-24.19C26.14-26.72 24.70-28.57 23.19-29.74C21.67-30.91 19.90-31.50 17.86-31.50C14.51-31.50 11.77-29.81 9.63-26.44C7.71-23.39 6.75-19.83 6.75-15.75C6.75-11.67 7.72-8.10 9.67-5.03C11.80-1.68 14.53 0 17.86 0C19.92 0 21.71-0.59 23.24-1.76C24.76-2.93 26.19-4.77 27.53-7.28C29.19-4.91 30.84-3.14 32.48-1.97C34.29-0.68 36.21-0.04 38.25-0.04ZM25.35-15.75C25.35-12.42 24.83-9.69 23.80-7.56C22.51-4.89 20.53-3.55 17.86-3.55C15.47-3.55 13.57-4.89 12.16-7.56C10.92-9.90 10.30-12.63 10.30-15.75C10.30-18.89 10.92-21.62 12.16-23.94C13.59-26.61 15.49-27.95 17.86-27.95C20.44-27.95 22.39-26.61 23.73-23.94C24.81-21.79 25.35-19.05 25.35-15.75Z"/></svg>