<svg xmlns="http://www.w3.org/2000/svg" xmlns:xlink="http://www.w3.org/1999/xlink" width="45" height="72"><path d="M38.25-11.39C38.25-14.63 37.28-17.18 35.33-19.05C33.69-20.65 31.27-21.82 28.05-22.57C29.98-24.02 31.21-24.98 31.75-25.45C32.82-26.39 33.62-27.32 34.12-28.23C34.62-29.14 34.88-30.23 34.88-31.50C34.88-34.97 33.56-38.05 30.94-40.75C28.17-43.58 24.80-45 20.81-45C16.64-45 13.18-43.50 10.44-40.50C7.98-37.83 6.75-34.83 6.75-31.50L6.75 0L10.13 0L10.13-31.50C10.13-33.91 10.99-36.12 12.73-38.11C14.77-40.45 17.46-41.63 20.81-41.63C23.74-41.63 26.30-40.50 28.48-38.25C30.49-36.16 31.50-33.91 31.50-31.50C31.50-29.58 30.66-27.98 28.97-26.72L24.19-23.77C23.51-23.27 23.17-22.64 23.17-21.87C23.17-21.16 23.51-20.67 24.19-20.39C25.90-19.80 27.62-19.23 29.36-18.67C33.04-17.31 34.88-15.02 34.88-11.81C34.88-8.95 34.02-6.86 32.31-5.52C31.02-4.51 29.13-3.89 26.65-3.66L20.81-3.38L20.81 0C24.30 0 26.91-0.14 28.62-0.42C31.57-0.91 33.82-1.90 35.37-3.38C37.29-5.20 38.25-7.88 38.25-11.39Z"/></svg>