<svg xmlns="http://www.w3.org/2000/svg" xmlns:xlink="http://www.w3.org/1999/xlink" width="45" height="72"><path d="M38.25-31.50L34.88-31.50C34.59-29.81 34.07-28.44 33.29-27.39C32.40-26.17 31.28-25.56 29.92-25.56C28.68-25.56 27.32-26.06 25.84-27.05C24.36-28.05 22.93-29.03 21.55-29.99C19.77-31.00 17.88-31.50 15.89-31.50C13.83-31.50 11.81-30.60 9.84-28.79C7.78-26.89 6.75-24.80 6.75-22.50L10.13-22.50C10.13-23.98 10.54-25.20 11.36-26.17C12.18-27.15 13.27-27.76 14.63-28.02L14.63 0L18 0L18-27.74C18.54-27.53 20.02-26.61 22.43-25.00C24.37-23.68 26.27-22.90 28.13-22.64L28.13 0L31.50 0L31.50-22.71C33.33-23.18 34.89-24.22 36.18-25.84C37.56-27.57 38.25-29.46 38.25-31.50Z"/></svg>