<svg xmlns="http://www.w3.org/2000/svg" xmlns:xlink="http://www.w3.org/1999/xlink" width="45" height="72"><path d="M38.25-28.13L38.25-31.50L20.74-31.50C16.34-31.50 12.83-29.85 10.23-26.54C7.91-23.59 6.75-20.04 6.75-15.89C6.75-11.70 7.89-8.10 10.16-5.10C12.74-1.70 16.24 0 20.67 0C25.10 0 28.62-1.69 31.22-5.06C33.49-8.02 34.63-11.58 34.63-15.75C34.63-17.72 34.30-19.64 33.64-21.52C32.92-23.55 31.76-25.70 30.16-27.95ZM30.16-15.75C30.16-12.49 29.46-9.76 28.05-7.56C26.37-4.89 23.91-3.55 20.67-3.55C17.44-3.55 14.99-4.89 13.32-7.56C11.94-9.76 11.25-12.49 11.25-15.75C11.25-19.03 11.95-21.80 13.36-24.05C15.05-26.77 17.51-28.13 20.74-28.13C23.98-28.13 26.43-26.77 28.09-24.05C29.47-21.80 30.16-19.03 30.16-15.75Z"/></svg>