<svg xmlns="http://www.w3.org/2000/svg" xmlns:xlink="http://www.w3.org/1999/xlink" width="45" height="72"><path d="M38.25-15.75L38.25-31.50L34.88-31.50L34.88-16.03C34.88-12.68 33.84-9.92 31.76-7.75C29.69-5.58 27.16-4.50 24.19-4.50C21.26-4.50 18.93-5.53 17.21-7.58C15.49-9.63 14.63-12.38 14.63-15.82L14.63-31.50L11.25-31.50L11.25-3.38C11.25 0.45 10.84 2.89 10.02 3.97C9.79 4.28 8.70 4.85 6.75 5.70L9 9C9.54 8.55 10.69 7.73 12.45 6.54C13.90 5.04 14.63 2.86 14.63 0L14.63-5.91C16.31-3.84 17.67-2.45 18.70-1.72C20.30-0.57 22.12 0 24.19 0C27.96 0 31.25-1.55 34.05-4.64C36.85-7.73 38.25-11.44 38.25-15.75Z"/></svg>