<svg xmlns="http://www.w3.org/2000/svg" xmlns:xlink="http://www.w3.org/1999/xlink" width="45" height="72"><path d="M38.25-31.50L34.88-31.50C34.59-29.81 34.07-28.44 33.29-27.39C32.40-26.17 31.28-25.56 29.92-25.56C28.68-25.56 27.32-26.06 25.84-27.05C24.36-28.05 22.93-29.03 21.55-29.99C19.77-31.00 17.88-31.50 15.89-31.50C13.83-31.50 11.81-30.60 9.84-28.79C7.78-26.89 6.75-24.80 6.75-22.50L10.13-22.50C10.13-24.21 10.66-25.58 11.72-26.60C12.79-27.62 14.18-28.13 15.89-28.13C16.76-28.13 17.62-27.93 18.49-27.53C19.13-27.25 19.90-26.77 20.81-26.09L20.81 0L24.19 0L24.19-23.91C25.05-23.46 25.94-23.12 26.84-22.87C27.74-22.62 28.76-22.50 29.88-22.50C31.92-22.50 33.83-23.41 35.60-25.22C37.37-27.04 38.25-29.13 38.25-31.50Z"/></svg>