<svg xmlns="http://www.w3.org/2000/svg" xmlns:xlink="http://www.w3.org/1999/xlink" width="45" height="72"><path d="M38.25-22.50C38.25-25.45 36.88-28.05 34.14-30.30C31.39-32.55 28.08-33.68 24.19-33.68L24.19-41.63L36-41.63L36-45L9-45L9-41.63L20.81-41.63L20.81-33.68C16.92-33.68 13.58-32.53 10.79-30.23C8.10-28.03 6.75-25.45 6.75-22.50C6.75-19.55 8.12-16.95 10.86-14.70C13.61-12.45 16.92-11.32 20.81-11.32L20.81-3.38L9-3.38L9 0L36 0L36-3.38L24.19-3.38L24.19-11.32C28.08-11.32 31.42-12.47 34.21-14.77C36.90-16.97 38.25-19.55 38.25-22.50ZM34.88-22.50C34.88-20.27 33.85-18.42 31.80-16.93C29.75-15.44 27.21-14.70 24.19-14.70L24.19-30.30C27.21-30.30 29.75-29.56 31.80-28.07C33.85-26.58 34.88-24.73 34.88-22.50ZM20.81-14.70C17.79-14.70 15.25-15.44 13.20-16.93C11.15-18.42 10.13-20.27 10.13-22.50C10.13-24.73 11.15-26.58 13.20-28.07C15.25-29.56 17.79-30.30 20.81-30.30Z"/></svg>