<svg xmlns="http://www.w3.org/2000/svg" xmlns:xlink="http://www.w3.org/1999/xlink" width="45" height="72"><path d="M38.25-22.50C38.25-28.43 36.96-33.53 34.38-37.79C31.48-42.60 27.52-45 22.50-45C17.48-45 13.51-42.59 10.58-37.76C8.03-33.54 6.75-28.45 6.75-22.50C6.75-16.57 8.04-11.47 10.62-7.21C13.52-2.40 17.48 0 22.50 0C27.52 0 31.49-2.41 34.42-7.24C36.97-11.46 38.25-16.55 38.25-22.50ZM34.84-24.19L10.16-24.19C10.16-28.80 11.18-32.77 13.22-36.07C15.52-39.77 18.61-41.63 22.50-41.63C26.44-41.63 29.54-39.77 31.82-36.07C33.83-32.79 34.84-28.83 34.84-24.19ZM34.84-20.81C34.84-16.20 33.82-12.23 31.78-8.93C29.48-5.23 26.39-3.38 22.50-3.38C18.56-3.38 15.46-5.23 13.18-8.93C11.17-12.21 10.16-16.17 10.16-20.81Z"/></svg>