<svg xmlns="http://www.w3.org/2000/svg" xmlns:xlink="http://www.w3.org/1999/xlink" width="45" height="72"><path d="M38.25 0L38.25-3.38C36.28-3.38 34.49-3.83 32.87-4.75C30.97-5.82 30.02-7.24 30.02-9C30.02-9.26 30.01-9.56 29.99-9.91C29.96-10.27 29.95-10.49 29.95-10.58C29.95-11.19 30.18-11.80 30.62-12.41C31.16-13.14 32.20-14.21 33.75-15.63C35.30-17.04 36.46-18.94 37.23-21.30C37.91-23.37 38.25-25.64 38.25-28.13C38.25-32.70 36.75-36.63 33.75-39.94C30.68-43.31 26.93-45 22.50-45C18.07-45 14.34-43.33 11.30-39.99C8.27-36.65 6.75-32.70 6.75-28.13C6.75-25.71 7.10-23.44 7.80-21.30C8.60-18.91 9.77-17.01 11.30-15.59C12.84-14.17 13.88-13.10 14.41-12.38C14.84-11.79 15.05-11.19 15.05-10.58C15.05-10.46 15.04-10.23 15.01-9.88C14.99-9.53 14.98-9.23 14.98-9C14.98-7.24 14.03-5.82 12.13-4.75C10.51-3.83 8.72-3.38 6.75-3.38L6.75 0C9.66 0 12.21-0.80 14.41-2.39C16.80-4.12 18-6.33 18-9C18-9.02 18.03-9.19 18.09-9.51C18.15-9.83 18.18-10.11 18.18-10.37C18.18-11.17 17.91-12.06 17.37-13.04C16.62-14.40 15.33-16.05 13.50-18C12.33-19.24 11.47-20.74 10.93-22.48C10.39-24.23 10.13-26.11 10.13-28.13C10.13-31.76 11.31-34.92 13.69-37.60C16.07-40.28 19.01-41.63 22.50-41.63C25.99-41.63 28.95-40.27 31.36-37.55C33.70-34.90 34.88-31.76 34.88-28.13C34.88-26.18 34.59-24.30 34.03-22.50C33.47-20.70 32.63-19.20 31.50-18C29.67-16.05 28.38-14.40 27.63-13.04C27.09-12.06 26.82-11.17 26.82-10.37C26.82-10.23 26.85-10.00 26.91-9.69C26.97-9.37 27-9.14 27-9C27-6.33 28.20-4.12 30.59-2.39C32.79-0.80 35.34 0 38.25 0Z"/></svg>