<svg xmlns="http://www.w3.org/2000/svg" xmlns:xlink="http://www.w3.org/1999/xlink" width="45" height="72"><path d="M38.25-13.50L38.25-22.50C38.25-26.09 37.23-29.19 35.19-31.82C33.04-34.61 30.30-36 27-36L18-36C16.76-36 15.73-36.42 14.92-37.27C14.12-38.11 13.64-39.19 13.50-40.50C13.48-40.64 13.46-40.84 13.46-41.10C13.46-42.43 13.90-43.61 14.77-44.61C15.63-45.62 16.71-46.13 18-46.13L38.25-46.13L38.25-49.50L18-49.50C15.73-49.50 13.85-48.60 12.36-46.81C10.87-45.02 10.13-42.91 10.13-40.50C10.13-38.34 10.90-36.49 12.45-34.95C13.99-33.40 15.84-32.63 18-32.63L27-32.63C29.39-32.63 31.34-31.56 32.84-29.43C34.20-27.48 34.88-25.17 34.88-22.50C34.99-22.36 35.11-22.18 35.23-21.96C35.34-21.73 35.40-21.57 35.40-21.48L35.26-21.48C35.19-21.53 35.06-21.66 34.88-21.87C33.37-23.46 31.53-24.71 29.34-25.63C27.15-26.54 24.87-27 22.50-27C18.28-27 14.64-25.76 11.57-23.27C8.36-20.67 6.75-17.41 6.75-13.50C6.75-9.56 8.37-6.29 11.60-3.69C14.65-1.23 18.28 0 22.50 0C26.72 0 30.36-1.24 33.43-3.73C36.64-6.33 38.25-9.59 38.25-13.50ZM34.88-13.50C34.88-10.50 33.59-8.03 31.01-6.08C28.62-4.28 25.78-3.38 22.50-3.38C19.22-3.38 16.37-4.29 13.96-6.12C11.40-8.06 10.13-10.52 10.13-13.50C10.13-16.50 11.41-18.97 13.99-20.92C16.38-22.72 19.22-23.63 22.50-23.63C25.78-23.63 28.63-22.71 31.04-20.88C33.60-18.94 34.88-16.48 34.88-13.50Z"/></svg>