<svg xmlns="http://www.w3.org/2000/svg" xmlns:xlink="http://www.w3.org/1999/xlink" width="45" height="72"><path d="M39.38-18C39.38-20.53 38.52-22.66 36.81-24.40C35.10-26.13 32.95-27 30.38-27C28.71-27 27.15-26.57 25.70-25.70C24.46-24.95 23.39-23.94 22.50-22.68C21.59-23.99 20.52-25.01 19.30-25.73C17.89-26.58 16.34-27 14.63-27C12.02-27 9.87-26.13 8.17-24.38C6.47-22.63 5.63-20.51 5.63-18C5.63-15.47 6.48-13.34 8.19-11.60C9.90-9.87 12.05-9 14.63-9C16.29-9 17.85-9.42 19.30-10.27C20.57-10.99 21.63-11.99 22.50-13.25C23.41-11.96 24.48-10.96 25.70-10.23C27.11-9.41 28.66-9 30.38-9C32.98-9 35.13-9.87 36.83-11.62C38.53-13.37 39.38-15.49 39.38-18ZM36-18C36-16.43 35.48-15.10 34.44-14.01C33.39-12.92 32.04-12.38 30.38-12.38C28.29-12.38 26.70-12.97 25.59-14.17C24.66-15.20 24.19-16.48 24.19-18C24.19-19.41 24.66-20.64 25.59-21.69C26.74-22.98 28.34-23.63 30.38-23.63C32.06-23.63 33.42-23.09 34.45-22.01C35.48-20.93 36-19.59 36-18ZM20.81-18C20.81-16.45 20.34-15.18 19.41-14.17C18.30-12.97 16.71-12.38 14.63-12.38C12.94-12.38 11.58-12.91 10.55-13.99C9.52-15.07 9-16.41 9-18C9-19.57 9.52-20.90 10.56-21.99C11.61-23.08 12.96-23.63 14.63-23.63C16.66-23.63 18.26-22.97 19.41-21.66C20.34-20.60 20.81-19.38 20.81-18Z"/></svg>