<svg xmlns="http://www.w3.org/2000/svg" xmlns:xlink="http://www.w3.org/1999/xlink" width="45" height="72"><path d="M38.25-22.50C38.25-25.57 37.21-28.29 35.12-30.66C33.18-32.86 30.64-34.41 27.53-35.30C28.42-37.31 29.43-38.85 30.55-39.90C31.79-41.05 33.23-41.63 34.88-41.63L38.25-41.63L38.25-45L33.29-45C31.09-45 29.20-44.14 27.63-42.43C26.27-40.96 25.09-38.79 24.08-35.93L22.50-36C18.28-36 14.64-34.76 11.57-32.27C8.36-29.67 6.75-26.41 6.75-22.50C6.75-19.43 7.78-16.72 9.84-14.38C11.79-12.18 14.32-10.63 17.44-9.74C16.57-7.68 15.59-6.13 14.48-5.10C13.27-3.95 11.81-3.38 10.13-3.38L6.75-3.38L6.75 0L11.95 0C14.11 0 15.95-0.86 17.47-2.57C18.76-4.02 19.91-6.19 20.92-9.07L22.50-9C26.72-9 30.36-10.24 33.43-12.73C36.64-15.33 38.25-18.59 38.25-22.50ZM34.88-22.50C34.88-19.50 33.59-17.03 31.01-15.08C28.62-13.28 25.78-12.38 22.50-12.38L21.90-12.38C22.42-14.32 22.93-16.54 23.45-19.02C23.89-21.27 24.35-23.53 24.82-25.80C25.38-28.38 25.91-30.48 26.40-32.10C28.86-31.44 30.87-30.29 32.41-28.65C34.05-26.89 34.88-24.84 34.88-22.50ZM23.06-32.63C22.57-30.84 22.07-28.72 21.57-26.26C21.06-23.80 20.59-21.45 20.14-19.20C19.61-16.66 19.08-14.57 18.56-12.90C16.10-13.58 14.11-14.73 12.59-16.35C10.95-18.11 10.13-20.16 10.13-22.50C10.13-25.50 11.41-27.97 13.99-29.92C16.38-31.72 19.22-32.63 22.50-32.63Z"/></svg>