<svg xmlns="http://www.w3.org/2000/svg" xmlns:xlink="http://www.w3.org/1999/xlink" width="45" height="72"><path d="M31.01-0.11L31.01-3.52C30.52-3.42 29.93-3.38 29.25-3.38C26.02-3.38 23.23-4.45 20.88-6.61C18.54-8.77 17.21-11.44 16.91-14.63L30.94-14.63L30.94-18L17.09-18C17.62-20.95 19.02-23.38 21.27-25.28C23.52-27.18 26.18-28.13 29.25-28.13C29.93-28.13 30.52-28.08 31.01-27.98L31.01-31.39L29.25-31.50C24.89-31.50 21.18-29.96 18.11-26.89C15.04-23.82 13.50-20.11 13.50-15.75C13.50-11.39 15.04-7.68 18.11-4.61C21.18-1.54 24.89 0 29.25 0Z"/></svg>