<svg xmlns="http://www.w3.org/2000/svg" xmlns:xlink="http://www.w3.org/1999/xlink" width="45" height="72"><path d="M27-31.50C27-33.75 26.81-35.06 26.44-35.44C26.06-35.81 24.75-36 22.50-36C20.25-36 18.94-35.81 18.56-35.44C18.19-35.06 18-33.75 18-31.50C18-29.25 18.19-27.94 18.56-27.56C18.94-27.19 20.25-27 22.50-27C24.75-27 26.06-27.19 26.44-27.56C26.81-27.94 27-29.25 27-31.50ZM38.25-18.07L38.25-21.45L6.75-21.45L6.75-18.07ZM27-7.88C27-10.13 26.81-11.44 26.44-11.81C26.06-12.19 24.75-12.38 22.50-12.38C20.25-12.38 18.94-12.19 18.56-11.81C18.19-11.44 18-10.13 18-7.88C18-5.63 18.19-4.31 18.56-3.94C18.94-3.56 20.25-3.38 22.50-3.38C24.75-3.38 26.06-3.56 26.44-3.94C26.81-4.31 27-5.63 27-7.88Z"/></svg>