<svg xmlns="http://www.w3.org/2000/svg" xmlns:xlink="http://www.w3.org/1999/xlink" width="45" height="72"><path d="M38.25-31.50L34.88-31.50C34.59-29.81 34.07-28.44 33.29-27.39C32.40-26.17 31.28-25.56 29.92-25.56C28.68-25.56 27.32-26.06 25.84-27.05C24.36-28.05 22.93-29.03 21.55-29.99C19.77-31.00 17.88-31.50 15.89-31.50C13.83-31.50 11.81-30.60 9.84-28.79C7.78-26.89 6.75-24.80 6.75-22.50L10.13-22.50C10.13-24.21 10.66-25.58 11.72-26.60C12.79-27.62 14.18-28.13 15.89-28.13C17.13-28.13 18.52-27.63 20.04-26.65C21.40-25.73 22.77-24.83 24.15-23.94C25.96-22.98 27.89-22.50 29.95-22.50C31.99-22.50 33.88-23.41 35.63-25.22C37.38-27.04 38.25-29.13 38.25-31.50ZM38.25-13.50L34.88-13.50C34.59-11.81 34.07-10.44 33.29-9.39C32.40-8.17 31.28-7.56 29.92-7.56C28.68-7.56 27.32-8.06 25.84-9.05C24.36-10.05 22.93-11.03 21.55-11.99C19.77-13.00 17.88-13.50 15.89-13.50C13.83-13.50 11.81-12.60 9.84-10.79C7.78-8.89 6.75-6.80 6.75-4.50L10.13-4.50C10.13-6.21 10.66-7.58 11.72-8.60C12.79-9.62 14.18-10.13 15.89-10.13C17.13-10.13 18.52-9.63 20.04-8.65C21.40-7.73 22.77-6.83 24.15-5.94C25.96-4.98 27.89-4.50 29.95-4.50C31.99-4.50 33.88-5.41 35.63-7.22C37.38-9.04 38.25-11.13 38.25-13.50Z"/></svg>