<svg xmlns="http://www.w3.org/2000/svg" xmlns:xlink="http://www.w3.org/1999/xlink" width="45" height="72"><path d="M31.50-45C31.50-47.51 30.63-49.63 28.88-51.38C27.13-53.13 25.01-54 22.50-54C19.99-54 17.87-53.13 16.12-51.38C14.37-49.63 13.50-47.51 13.50-45C13.50-42.49 14.37-40.37 16.12-38.62C17.87-36.87 19.99-36 22.50-36C25.01-36 27.13-36.87 28.88-38.62C30.63-40.37 31.50-42.49 31.50-45ZM28.79-45C28.79-43.24 28.18-41.75 26.96-40.54C25.75-39.32 24.26-38.71 22.50-38.71C20.74-38.71 19.25-39.32 18.04-40.54C16.82-41.75 16.21-43.24 16.21-45C16.21-46.76 16.82-48.25 18.04-49.46C19.25-50.68 20.74-51.29 22.50-51.29C24.26-51.29 25.75-50.68 26.96-49.46C28.18-48.25 28.79-46.76 28.79-45Z"/></svg>