<svg xmlns="http://www.w3.org/2000/svg" xmlns:xlink="http://www.w3.org/1999/xlink" width="45" height="72"><path d="M34.24-20.88L34.24-24.26L14.17-24.26C14.17-25.66 14.55-26.87 15.33-27.88C15.96-28.72 16.96-29.54 18.32-30.34C19.68-31.07 21.05-31.79 22.43-32.52L25.28-34.03C27.08-34.97 28.57-35.86 29.74-36.70C31.24-37.78 32.33-38.82 33.01-39.83C33.83-41.05 34.24-42.40 34.24-43.88C34.24-46.62 33.11-48.99 30.83-50.99C28.56-53.00 25.78-54 22.50-54C19.36-54 16.62-52.91 14.29-50.73C11.96-48.55 10.79-46.10 10.79-43.38L14.17-43.38C14.17-45.26 15.00-46.93 16.66-48.41C18.33-49.89 20.27-50.63 22.50-50.63C24.91-50.63 26.92-49.98 28.51-48.69C30.11-47.40 30.90-45.80 30.90-43.88C30.90-42.73 30.54-41.68 29.81-40.75C29.23-40.00 28.30-39.23 27.04-38.46C26.57-38.18 25.32-37.49 23.31-36.39L20.50-34.91C17.21-33.22 14.88-31.68 13.50-30.27C11.70-28.44 10.79-26.29 10.79-23.80L10.79-20.88Z"/></svg>