<svg xmlns="http://www.w3.org/2000/svg" xmlns:xlink="http://www.w3.org/1999/xlink" width="45" height="72"><path d="M27-40.50C27-42.75 26.81-44.06 26.44-44.44C26.06-44.81 24.75-45 22.50-45C20.25-45 18.94-44.81 18.56-44.44C18.19-44.06 18-42.75 18-40.50C18-37.22 18.04-34.42 18.12-32.10C18.21-29.78 18.40-27.40 18.70-24.98C19.01-22.55 19.52-19.48 20.25-15.75C20.39-15.12 20.66-14.58 21.06-14.15C21.46-13.72 21.94-13.50 22.50-13.50C23.11-13.50 23.60-13.71 23.98-14.13C24.35-14.55 24.61-15.09 24.75-15.75C25.55-19.69 26.09-22.79 26.37-25.07C26.65-27.34 26.82-29.48 26.89-31.50C26.96-33.52 27-36.52 27-40.50ZM27 0C27-2.25 26.81-3.56 26.44-3.94C26.06-4.31 24.75-4.50 22.50-4.50C20.25-4.50 18.94-4.31 18.56-3.94C18.19-3.56 18-2.25 18 0C18 2.25 18.19 3.56 18.56 3.94C18.94 4.31 20.25 4.50 22.50 4.50C24.75 4.50 26.06 4.31 26.44 3.94C26.81 3.56 27 2.25 27 0Z"/></svg>