<svg xmlns="http://www.w3.org/2000/svg" xmlns:xlink="http://www.w3.org/1999/xlink" width="45" height="72"><path d="M36-45C36-47.25 35.81-48.56 35.44-48.94C35.06-49.31 33.75-49.50 31.50-49.50C29.25-49.50 27.94-49.31 27.56-48.94C27.19-48.56 27-47.25 27-45C27-43.31 27.09-42.00 27.28-41.06C27.47-40.12 28.13-37.69 29.25-33.75C29.44-33.07 29.71-32.53 30.08-32.12C30.44-31.71 30.91-31.50 31.50-31.50C32.06-31.50 32.55-31.73 32.98-32.20C33.30-32.58 33.56-33.09 33.75-33.75C34.88-37.69 35.53-40.12 35.72-41.06C35.91-42.00 36-43.31 36-45ZM18-45C18-47.25 17.81-48.56 17.44-48.94C17.06-49.31 15.75-49.50 13.50-49.50C11.25-49.50 9.94-49.31 9.56-48.94C9.19-48.56 9-47.25 9-45C9-43.31 9.09-42.00 9.28-41.06C9.47-40.12 10.13-37.69 11.25-33.75C11.44-33.07 11.71-32.53 12.08-32.12C12.44-31.71 12.91-31.50 13.50-31.50C14.06-31.50 14.55-31.73 14.98-32.20C15.30-32.58 15.56-33.09 15.75-33.75C16.88-37.69 17.53-40.12 17.72-41.06C17.91-42.00 18-43.31 18-45Z"/></svg>