<svg xmlns="http://www.w3.org/2000/svg" xmlns:xlink="http://www.w3.org/1999/xlink" width="45" height="72"><path d="M38.53-12.94C38.53-16.57 37.27-19.63 34.75-22.13C32.23-24.63 29.18-25.88 25.59-25.88L24.19-25.88L24.19-41.63L25.59-41.63C27.07-41.63 29.03-41.17 31.46-40.25C32.26-39.97 33.30-39.53 34.59-38.92L34.59-42.33C33.28-42.94 32.24-43.38 31.46-43.66C29.07-44.55 27.12-45 25.59-45L24.19-45L24.19-54L20.81-54L20.81-45L19.41-45C16.31-45 13.66-43.90 11.46-41.70C9.26-39.49 8.16-36.84 8.16-33.75C8.16-30.66 9.26-28.01 11.46-25.80C13.66-23.60 16.31-22.50 19.41-22.50L20.81-22.50L20.81-3.38L19.41-3.38C17.93-3.38 16.17-3.79 14.13-4.61C12.63-5.21 11.10-5.98 9.53-6.89C8.87-7.29 8.23-7.70 7.59-8.12L7.59-4.50L9.56-3.30C11.09-2.46 12.62-1.75 14.17-1.16C16.21-0.39 17.95 0 19.41 0L20.81 0L20.81 9L24.19 9L24.19 0L25.59 0C29.16 0 32.20-1.27 34.73-3.80C37.27-6.33 38.53-9.38 38.53-12.94ZM20.81-25.88L19.41-25.88C17.25-25.88 15.40-26.65 13.85-28.20C12.30-29.74 11.53-31.59 11.53-33.75C11.53-35.91 12.30-37.76 13.85-39.30C15.40-40.85 17.25-41.63 19.41-41.63L20.81-41.63ZM35.16-12.94C35.16-10.29 34.22-8.03 32.36-6.17C30.50-4.31 28.24-3.38 25.59-3.38L24.19-3.38L24.19-22.50L25.59-22.50C28.24-22.50 30.50-21.57 32.36-19.71C34.22-17.84 35.16-15.59 35.16-12.94Z"/></svg>