<svg xmlns="http://www.w3.org/2000/svg" xmlns:xlink="http://www.w3.org/1999/xlink" width="45" height="72"><path d="M22.50-36C22.50-38.48 21.62-40.61 19.86-42.36C18.11-44.12 15.98-45 13.50-45C11.02-45 8.89-44.12 7.14-42.36C5.38-40.61 4.50-38.48 4.50-36C4.50-33.52 5.38-31.39 7.14-29.64C8.89-27.88 11.02-27 13.50-27C15.98-27 18.11-27.88 19.86-29.64C21.62-31.39 22.50-33.52 22.50-36ZM38.18-45L34.24-45L6.75 0L10.72 0ZM40.50-9C40.50-11.48 39.62-13.61 37.86-15.36C36.11-17.12 33.98-18 31.50-18C29.02-18 26.89-17.12 25.14-15.36C23.38-13.61 22.50-11.48 22.50-9C22.50-6.52 23.38-4.39 25.14-2.64C26.89-0.88 29.02 0 31.50 0C33.98 0 36.11-0.88 37.86-2.64C39.62-4.39 40.50-6.52 40.50-9ZM19.13-36C19.13-34.45 18.57-33.13 17.47-32.03C16.37-30.93 15.05-30.38 13.50-30.38C11.95-30.38 10.63-30.93 9.53-32.03C8.43-33.13 7.88-34.45 7.88-36C7.88-37.55 8.43-38.87 9.53-39.97C10.63-41.07 11.95-41.63 13.50-41.63C15.05-41.63 16.37-41.07 17.47-39.97C18.57-38.87 19.13-37.55 19.13-36ZM37.13-9C37.13-7.45 36.57-6.13 35.47-5.03C34.37-3.93 33.05-3.38 31.50-3.38C29.95-3.38 28.63-3.93 27.53-5.03C26.43-6.13 25.88-7.45 25.88-9C25.88-10.55 26.43-11.87 27.53-12.97C28.63-14.07 29.95-14.63 31.50-14.63C33.05-14.63 34.37-14.07 35.47-12.97C36.57-11.87 37.13-10.55 37.13-9Z"/></svg>