<svg xmlns="http://www.w3.org/2000/svg" xmlns:xlink="http://www.w3.org/1999/xlink" width="45" height="72"><path d="M41.45-16.80L38.11-16.80C37.71-13.57 36.13-10.51 33.36-7.63C30.22-4.35 26.60-2.71 22.50-2.71C17.72-2.71 13.91-3.64 11.07-5.52C8.24-7.39 6.82-9.93 6.82-13.11C6.82-14.99 7.45-16.76 8.72-18.42C9.82-19.85 11.34-21.16 13.29-22.36C14.79-23.27 16.71-24.20 19.05-25.14C20.77-25.82 22.31-26.60 23.70-27.49C25.52-28.66 26.96-29.94 28.02-31.32C29.29-32.99 29.92-34.75 29.92-36.60C29.92-38.92 28.91-40.90 26.89-42.54C24.88-44.18 22.44-45 19.58-45C16.72-45 14.29-44.18 12.27-42.54C10.25-40.90 9.25-38.92 9.25-36.60C9.25-35.05 9.70-33.15 10.62-30.90C11.39-29.03 12.54-26.80 14.06-24.22C15.35-22.07 16.88-19.70 18.63-17.12C21.23-13.25 23.57-10.18 25.63-7.91C27.97-5.31 30.89-2.67 34.38 0L39.48 0C35.75-2.79 32.68-5.40 30.27-7.84C27.74-10.42 25.16-13.56 22.54-17.28C19.91-20.99 17.60-24.75 15.61-28.55C13.55-32.46 12.52-35.14 12.52-36.60C12.52-38.19 13.21-39.56 14.59-40.71C15.97-41.86 17.64-42.43 19.58-42.43C21.53-42.43 23.20-41.87 24.59-40.73C25.99-39.59 26.68-38.21 26.68-36.60C26.68-34.42 25.54-32.37 23.24-30.45C21.36-28.87 19.24-27.73 16.88-27C13.08-25.85 9.97-24.13 7.56-21.83C4.84-19.25 3.48-16.35 3.48-13.11C3.48-9.32 5.09-6.22 8.30-3.83C11.74-1.28 16.48 0 22.50 0C27.98 0 32.61-1.90 36.39-5.70C39.76-9.09 41.45-12.80 41.45-16.80Z"/></svg>