<svg xmlns="http://www.w3.org/2000/svg" xmlns:xlink="http://www.w3.org/1999/xlink" width="45" height="72"><path d="M30.38 4.50L30.38 1.13C27.09 1.13 24.47-0.14 22.50-2.67C20.86-4.78 19.65-7.82 18.88-11.78C18.29-14.80 18-18.38 18-22.50C18-26.51 18.30-30.09 18.91-33.26C19.66-37.20 20.87-40.22 22.54-42.33C24.53-44.86 27.14-46.13 30.38-46.13L30.38-49.50C26.55-49.50 23.38-48.07 20.85-45.21C18.69-42.77 17.07-39.34 16.00-34.91C15.08-31.16 14.63-27.02 14.63-22.50C14.63-18.02 15.09-13.88 16.03-10.05C17.11-5.65 18.73-2.23 20.88 0.21C23.41 3.07 26.58 4.50 30.38 4.50Z"/></svg>