<svg xmlns="http://www.w3.org/2000/svg" xmlns:xlink="http://www.w3.org/1999/xlink" width="45" height="72"><path d="M30.38-22.50C30.38-26.98 29.91-31.12 28.97-34.95C27.89-39.35 26.27-42.77 24.12-45.21C21.59-48.07 18.42-49.50 14.63-49.50L14.63-46.13C17.91-46.13 20.53-44.86 22.50-42.33C24.16-40.20 25.37-37.16 26.12-33.22C26.71-30.15 27-26.58 27-22.50C27-18.47 26.70-14.88 26.09-11.74C25.31-7.80 24.11-4.78 22.46-2.67C20.47-0.14 17.86 1.13 14.63 1.13L14.63 4.50C18.45 4.50 21.62 3.07 24.15 0.21C26.31-2.23 27.93-5.66 29.00-10.09C29.92-13.84 30.38-17.98 30.38-22.50Z"/></svg>