<svg xmlns="http://www.w3.org/2000/svg" xmlns:xlink="http://www.w3.org/1999/xlink" width="45" height="72"><path d="M38.25-22.50C38.25-28.43 36.96-33.53 34.38-37.79C31.48-42.60 27.52-45 22.50-45C17.48-45 13.51-42.59 10.58-37.76C8.03-33.54 6.75-28.45 6.75-22.50C6.75-16.57 8.04-11.47 10.62-7.21C13.52-2.40 17.48 0 22.50 0C27.52 0 31.49-2.41 34.42-7.24C36.97-11.46 38.25-16.55 38.25-22.50ZM33.79-30.94L10.51-17.51C10.25-19.03 10.13-20.70 10.13-22.50C10.13-27.45 11.00-31.71 12.76-35.30C14.85-39.54 17.74-41.66 21.45-41.66L21.94-41.66C22.15-41.66 22.34-41.65 22.50-41.63C25.41-41.32 27.83-40.20 29.78-38.25C31.58-36.45 32.92-34.01 33.79-30.94ZM34.88-22.50C34.88-17.55 34.00-13.29 32.24-9.70C30.15-5.46 27.26-3.34 23.55-3.34L23.03-3.34C22.86-3.34 22.69-3.35 22.50-3.38C19.59-3.68 17.17-4.80 15.22-6.75C13.42-8.55 12.09-10.98 11.25-14.03L34.49-27.46C34.75-25.93 34.88-24.28 34.88-22.50Z"/></svg>