<svg xmlns="http://www.w3.org/2000/svg" xmlns:xlink="http://www.w3.org/1999/xlink" width="45" height="72"><path d="M38.25 0L38.25-3.38L10.13-3.38C10.13-5.60 10.66-7.50 11.74-9.07C12.63-10.36 14.06-11.63 16.03-12.87C16.83-13.36 18.84-14.46 22.08-16.17L26.09-18.28C28.71-19.66 30.73-20.85 32.13-21.83C34.08-23.19 35.54-24.60 36.53-26.05C37.68-27.74 38.25-29.55 38.25-31.50C38.25-35.20 36.74-38.38 33.71-41.03C30.69-43.68 26.95-45 22.50-45C18.33-45 14.64-43.56 11.43-40.68C8.31-37.89 6.75-34.83 6.75-31.50L10.13-31.50C10.13-33.96 11.36-36.25 13.82-38.36C16.37-40.54 19.27-41.63 22.50-41.63C26.04-41.63 28.99-40.66 31.34-38.72C33.70-36.79 34.88-34.38 34.88-31.50C34.88-29.74 34.36-28.18 33.33-26.82C32.51-25.72 31.18-24.60 29.36-23.45C28.68-23.03 26.86-22.01 23.91-20.39L19.97-18.35C17.04-16.85 14.75-15.50 13.11-14.31C11.00-12.79 9.45-11.21 8.44-9.60C7.31-7.79 6.75-5.72 6.75-3.38L6.75 0Z"/></svg>