<svg xmlns="http://www.w3.org/2000/svg" xmlns:xlink="http://www.w3.org/1999/xlink" width="45" height="72"><path d="M39.09-12.09C39.09-14.27 38.55-16.28 37.48-18.12C36.40-19.96 34.96-21.42 33.15-22.50C34.98-23.60 36.43-25.06 37.49-26.88C38.56-28.69 39.09-30.70 39.09-32.91C39.09-36.26 37.92-39.11 35.56-41.47C33.21-43.82 30.35-45 27-45L19.69-45C17.77-45 15.97-44.58 14.29-43.73C12.62-42.89 11.21-41.73 10.09-40.25L12.48-37.83C13.30-39.00 14.34-39.93 15.59-40.61C16.85-41.29 18.21-41.63 19.69-41.63L27-41.63C29.41-41.63 31.47-40.78 33.17-39.08C34.87-37.38 35.72-35.32 35.72-32.91C35.72-30.49 34.87-28.44 33.17-26.74C31.47-25.04 29.41-24.19 27-24.19L18.84-24.19L18.84-20.81L27-20.81C29.41-20.81 31.47-19.96 33.17-18.26C34.87-16.56 35.72-14.51 35.72-12.09C35.72-9.68 34.87-7.62 33.17-5.92C31.47-4.22 29.41-3.38 27-3.38L19.69-3.38C18.21-3.38 16.84-3.72 15.57-4.41C14.31-5.10 13.28-6.02 12.48-7.17L10.09-4.75C11.24-3.25 12.64-2.08 14.29-1.25C15.94-0.42 17.74 0 19.69 0L27 0C30.35 0 33.21-1.18 35.56-3.53C37.92-5.89 39.09-8.74 39.09-12.09Z"/></svg>