<svg xmlns="http://www.w3.org/2000/svg" xmlns:xlink="http://www.w3.org/1999/xlink" width="45" height="72"><path d="M38.25-15.75C38.25-20.11 36.71-23.82 33.64-26.89C30.57-29.96 26.86-31.50 22.50-31.50C19.90-31.50 17.55-31.08 15.47-30.23C13.80-29.55 12.02-28.48 10.13-27L10.13-41.63L34.88-41.63L34.88-45L6.75-45L6.75-22.50L10.13-22.50C11.77-24.40 13.65-25.81 15.79-26.74C17.92-27.66 20.16-28.13 22.50-28.13C25.92-28.13 28.84-26.92 31.25-24.50C33.67-22.09 34.88-19.17 34.88-15.75C34.88-12.33 33.67-9.41 31.25-7.00C28.84-4.58 25.92-3.38 22.50-3.38C19.83-3.38 17.43-4.14 15.31-5.66C13.19-7.18 11.70-9.18 10.83-11.64L7.70-10.34C8.82-7.29 10.74-4.80 13.45-2.88C16.15-0.96 19.17 0 22.50 0C26.86 0 30.57-1.54 33.64-4.61C36.71-7.68 38.25-11.39 38.25-15.75Z"/></svg>