<svg xmlns="http://www.w3.org/2000/svg" xmlns:xlink="http://www.w3.org/1999/xlink" width="45" height="72"><path d="M38.25-13.50C38.25-17.18 36.75-20.33 33.75-22.96C30.68-25.65 26.93-27 22.50-27C20.48-27 18.52-26.58 16.59-25.73C14.91-24.98 12.76-23.66 10.16-21.76L10.13-31.50C10.13-34.45 11.29-36.88 13.62-38.78C15.96-40.68 18.91-41.63 22.50-41.63C25.83-41.63 28.72-40.61 31.18-38.57C33.64-36.53 34.88-34.17 34.88-31.50L38.25-31.50C38.25-34.99 36.70-38.10 33.61-40.82C30.45-43.61 26.74-45 22.50-45C17.95-45 14.19-43.75 11.21-41.24C8.24-38.73 6.75-35.48 6.75-31.50L6.75-13.50C6.75-9.80 8.26-6.62 11.29-3.97C14.31-1.32 18.05 0 22.50 0C26.93 0 30.66-1.33 33.70-3.99C36.73-6.65 38.25-9.82 38.25-13.50ZM34.88-13.50C34.88-10.62 33.70-8.21 31.34-6.28C28.99-4.34 26.04-3.38 22.50-3.38C18.94-3.38 15.99-4.34 13.66-6.28C11.33-8.21 10.16-10.62 10.16-13.50C10.16-16.36 11.33-18.76 13.68-20.71C16.02-22.65 18.96-23.63 22.50-23.63C26.04-23.63 28.99-22.66 31.34-20.72C33.70-18.79 34.88-16.38 34.88-13.50Z"/></svg>