<svg xmlns="http://www.w3.org/2000/svg" xmlns:xlink="http://www.w3.org/1999/xlink" width="45" height="72"><path d="M36-33.19L36-36C36-38.20 34.76-40.25 32.29-42.15C29.82-44.05 27.30-45 24.75-45L20.25-45C17.70-45 15.18-44.05 12.71-42.15C10.24-40.25 9-38.20 9-36L9-33.19C9-30.68 11.05-28.16 15.15-25.63C18.93-23.52 22.71-21.42 26.51-19.34C30.59-16.80 32.63-14.30 32.63-11.81L32.63-9C32.63-6.98 31.70-5.48 29.85-4.50C28.44-3.75 26.74-3.38 24.75-3.38L20.25-3.38C18.26-3.38 16.56-3.75 15.15-4.50C13.30-5.48 12.38-6.98 12.38-9L12.38-11.81C12.38-14.32 14.43-16.84 18.53-19.37C22.30-21.46 26.09-23.55 29.88-25.66C33.96-28.20 36-30.70 36-33.19ZM36-9L36-11.81C36-14.32 33.95-16.84 29.85-19.37C26.05-21.46 22.27-23.55 18.49-25.66C14.41-28.20 12.38-30.70 12.38-33.19L12.38-36C12.38-38.02 13.30-39.52 15.15-40.50C16.56-41.25 18.26-41.63 20.25-41.63L24.75-41.63C26.74-41.63 28.44-41.25 29.85-40.50C31.70-39.52 32.63-38.02 32.63-36L32.63-33.19C32.63-30.68 30.57-28.16 26.47-25.63C22.68-23.52 18.89-21.42 15.12-19.34C11.04-16.80 9-14.30 9-11.81L9-9C9-6.80 10.24-4.75 12.71-2.85C15.18-0.95 17.70 0 20.25 0L24.75 0C27.30 0 29.82-0.95 32.29-2.85C34.76-4.75 36-6.80 36-9Z"/></svg>