<svg xmlns="http://www.w3.org/2000/svg" xmlns:xlink="http://www.w3.org/1999/xlink" width="45" height="72"><path d="M38.25-13.50L38.25-31.50C38.25-35.20 36.74-38.38 33.71-41.03C30.69-43.68 26.95-45 22.50-45C18.07-45 14.34-43.67 11.30-41.01C8.27-38.35 6.75-35.18 6.75-31.50C6.75-27.82 8.27-24.65 11.30-21.99C14.34-19.33 18.07-18 22.50-18C24.52-18 26.48-18.42 28.41-19.27C30.09-20.02 32.24-21.34 34.84-23.24L34.88-13.50C34.88-10.55 33.71-8.12 31.38-6.22C29.04-4.32 26.09-3.38 22.50-3.38C19.17-3.38 16.28-4.39 13.82-6.43C11.36-8.47 10.13-10.83 10.13-13.50L6.75-13.50C6.75-10.01 8.31-6.88 11.44-4.13C14.57-1.38 18.26 0 22.50 0C27.05 0 30.81-1.25 33.79-3.76C36.76-6.27 38.25-9.52 38.25-13.50ZM34.84-31.50C34.84-28.64 33.67-26.24 31.32-24.29C28.98-22.35 26.04-21.38 22.50-21.38C18.96-21.38 16.01-22.34 13.66-24.28C11.30-26.21 10.13-28.62 10.13-31.50C10.13-34.38 11.30-36.79 13.66-38.72C16.01-40.66 18.96-41.63 22.50-41.63C26.06-41.63 29.01-40.66 31.34-38.72C33.67-36.79 34.84-34.38 34.84-31.50Z"/></svg>