<svg xmlns="http://www.w3.org/2000/svg" xmlns:xlink="http://www.w3.org/1999/xlink" width="45" height="72"><path d="M27-27C27-29.25 26.81-30.56 26.44-30.94C26.06-31.31 24.75-31.50 22.50-31.50C20.25-31.50 18.94-31.31 18.56-30.94C18.19-30.56 18-29.25 18-27C18-24.75 18.19-23.44 18.56-23.06C18.94-22.69 20.25-22.50 22.50-22.50C24.75-22.50 26.06-22.69 26.44-23.06C26.81-23.44 27-24.75 27-27ZM27-4.50C27-6.75 26.81-8.06 26.44-8.44C26.06-8.81 24.75-9 22.50-9C20.25-9 18.94-8.81 18.56-8.44C18.19-8.06 18-6.75 18-4.50L18 6.47C18 7.17 18.22 7.77 18.67 8.26C19.11 8.75 19.66 9 20.32 9C20.86 9 21.29 8.79 21.62 8.37C21.90 7.88 22.20 7.38 22.50 6.89C24.45 3.70 25.46 2.02 25.56 1.83C26.52 0.05 27-2.06 27-4.50Z"/></svg>