<svg xmlns="http://www.w3.org/2000/svg" xmlns:xlink="http://www.w3.org/1999/xlink" width="45" height="72"><path d="M38.25-36C38.25-39.66 36.73-42.82 33.70-45.49C30.66-48.16 26.93-49.50 22.50-49.50C18.35-49.50 14.66-48.05 11.43-45.14C8.31-42.35 6.75-39.30 6.75-36L10.13-36C10.13-38.37 11.34-40.62 13.78-42.75C16.36-45 19.27-46.13 22.50-46.13C26.09-46.13 29.04-45.16 31.38-43.22C33.71-41.29 34.88-38.88 34.88-36C34.88-34.27 34.38-32.79 33.40-31.57C32.77-30.77 31.57-29.80 29.81-28.65C27.70-27.27 26.26-26.25 25.49-25.59C23.61-24.00 22.37-22.43 21.74-20.88C21.12-19.34 20.81-16.88 20.81-13.50L24.19-13.50C24.19-16.99 24.59-19.52 25.38-21.08C26.18-22.63 27.68-23.96 29.88-25.07C31.83-26.00 33.52-27.21 34.95-28.69C37.15-30.94 38.25-33.37 38.25-36ZM27 0C27-2.25 26.81-3.56 26.44-3.94C26.06-4.31 24.75-4.50 22.50-4.50C20.25-4.50 18.94-4.31 18.56-3.94C18.19-3.56 18-2.25 18 0C18 2.25 18.19 3.56 18.56 3.94C18.94 4.31 20.25 4.50 22.50 4.50C24.75 4.50 26.06 4.31 26.44 3.94C26.81 3.56 27 2.25 27 0Z"/></svg>