<svg xmlns="http://www.w3.org/2000/svg" xmlns:xlink="http://www.w3.org/1999/xlink" width="45" height="72"><path d="M41.45-11.74L41.45-34.24C41.45-37.50 39.95-40.11 36.95-42.06C33.95-44.02 30.08-45 25.35-45C19.00-45 13.70-42.64 9.46-37.93C5.47-33.50 3.48-28.36 3.48-22.50C3.48-16.64 5.48-11.50 9.49-7.07C13.76-2.36 19.04 0 25.35 0C26.82 0 28.15-0.06 29.32-0.18C31.36-0.39 33.48-0.79 35.68-1.37L35.68-4.04C33.39-3.41 31.41-3.01 29.74-2.85C28.83-2.75 27.36-2.71 25.35-2.71C19.96-2.71 15.46-4.79 11.85-8.96C8.50-12.86 6.82-17.37 6.82-22.50C6.82-27.68 8.50-32.23 11.85-36.14C15.43-40.34 19.93-42.43 25.35-42.43C29.24-42.43 32.34-41.71 34.65-40.25C36.96-38.80 38.11-36.80 38.11-34.24L38.11-30.76C36.54-31.72 35.23-32.38 34.19-32.73C33.15-33.08 32.12-33.26 31.11-33.26C27.97-33.26 25.43-32.13 23.48-29.88C21.70-27.82 20.81-25.36 20.81-22.50C20.81-19.66 21.71-17.20 23.52-15.12C25.46-12.87 28.00-11.74 31.11-11.74C32.10-11.74 33.12-11.91 34.17-12.25C35.23-12.59 36.54-13.21 38.11-14.10L38.11-11.74ZM38.11-22.50C38.11-20.37 37.54-18.54 36.39-17.02C35.10-15.30 33.34-14.45 31.11-14.45C28.89-14.45 27.13-15.30 25.84-17.02C24.69-18.54 24.12-20.37 24.12-22.50C24.12-24.66 24.69-26.50 25.84-28.02C27.15-29.75 28.91-30.62 31.11-30.62C33.36-30.62 35.13-29.75 36.42-28.02C37.55-26.52 38.11-24.68 38.11-22.50Z"/></svg>