<svg xmlns="http://www.w3.org/2000/svg" xmlns:xlink="http://www.w3.org/1999/xlink" width="45" height="72"><path d="M38.25 0L38.25-16.88C38.25-21.21 37.57-24.81 36.21-27.67C35.41-29.36 33.70-31.79 31.08-34.98C28.20-38.47 25.90-41.81 24.19-45L20.81-45C19.05-41.77 16.76-38.41 13.92-34.95C11.20-31.64 9.48-29.21 8.75-27.67C7.42-24.86 6.75-21.26 6.75-16.88L6.75 0L10.13 0L10.13-14.87L34.88-14.87L34.88 0ZM34.88-18L10.13-18C10.13-20.81 10.54-23.18 11.36-25.10C12.01-26.67 13.32-28.70 15.29-31.18C19.14-36.08 21.54-39.19 22.50-40.50C23.27-39.42 25.69-36.30 29.74-31.15C31.71-28.64 33.02-26.61 33.68-25.07C34.48-23.19 34.88-20.84 34.88-18Z"/></svg>