<svg xmlns="http://www.w3.org/2000/svg" xmlns:xlink="http://www.w3.org/1999/xlink" width="45" height="72"><path d="M38.25-12.09C38.25-14.27 37.71-16.28 36.63-18.12C35.55-19.96 34.11-21.42 32.31-22.50C34.14-23.60 35.58-25.06 36.65-26.88C37.72-28.69 38.25-30.70 38.25-32.91C38.25-36.26 37.07-39.11 34.72-41.47C32.36-43.82 29.51-45 26.16-45L6.75-45L6.75 0L26.16 0C29.51 0 32.36-1.18 34.72-3.53C37.07-5.89 38.25-8.74 38.25-12.09ZM34.88-32.91C34.88-30.49 34.03-28.44 32.33-26.74C30.63-25.04 28.57-24.19 26.16-24.19L10.13-24.19L10.13-41.63L26.16-41.63C28.57-41.63 30.63-40.78 32.33-39.08C34.03-37.38 34.88-35.32 34.88-32.91ZM34.88-12.09C34.88-9.68 34.03-7.62 32.33-5.92C30.63-4.22 28.57-3.38 26.16-3.38L10.13-3.38L10.13-20.81L26.16-20.81C28.57-20.81 30.63-19.96 32.33-18.26C34.03-16.56 34.88-14.51 34.88-12.09Z"/></svg>