<svg xmlns="http://www.w3.org/2000/svg" xmlns:xlink="http://www.w3.org/1999/xlink" width="45" height="72"><path d="M38.25-3.02L38.25-7.03C36.56-5.81 34.83-4.90 33.05-4.29C31.27-3.68 29.25-3.38 27-3.38C22.17-3.38 18.12-5.32 14.84-9.21C11.70-12.94 10.13-17.37 10.13-22.50C10.13-27.63 11.70-32.06 14.84-35.79C18.12-39.68 22.17-41.63 27-41.63C29.23-41.63 31.29-41.30 33.19-40.64C34.92-40.05 36.61-39.16 38.25-37.97L38.25-41.98C36.49-43.01 34.73-43.77 32.98-44.26C31.22-44.75 29.23-45 27-45C21.23-45 16.38-42.73 12.45-38.18C8.65-33.80 6.75-28.57 6.75-22.50C6.75-16.43 8.65-11.20 12.45-6.82C16.38-2.27 21.23 0 27 0C29.25 0 31.25-0.25 32.99-0.74C34.74-1.23 36.49-1.99 38.25-3.02Z"/></svg>