<svg xmlns="http://www.w3.org/2000/svg" xmlns:xlink="http://www.w3.org/1999/xlink" width="45" height="72"><path d="M37.97 0L37.97-16.80L34.56-16.80L34.56-4.08C32.05-3.16 29.68-2.71 27.46-2.71C21.71-2.71 17.07-4.79 13.54-8.96C10.32-12.74 8.72-17.25 8.72-22.50C8.72-27.77 10.32-32.32 13.54-36.14C17.07-40.34 21.71-42.43 27.46-42.43C29.40-42.43 31.26-42.13 33.03-41.52C34.80-40.91 36.41-40.09 37.86-39.06L37.86-42.68C34.91-44.23 31.44-45 27.46-45C20.82-45 15.40-42.64 11.18-37.93C7.29-33.60 5.34-28.45 5.34-22.50C5.34-16.57 7.30-11.43 11.21-7.07C15.43-2.36 20.85 0 27.46 0C28.39 0 29.44-0.09 30.60-0.26C31.76-0.44 33.08-0.71 34.56-1.09L34.56 0Z"/></svg>