<svg xmlns="http://www.w3.org/2000/svg" xmlns:xlink="http://www.w3.org/1999/xlink" width="45" height="72"><path d="M10.13-24.19L10.13-45L6.75-45L6.75 0L10.13 0L10.13-20.81C13.59-20.81 16.78-19.01 19.69-15.40C21.94-12.05 24.20-8.71 26.47-5.38C29.14-1.79 31.95 0 34.88 0L38.25 0L38.25-3.38L34.88-3.38C32.46-3.38 29.98-5.04 27.42-8.37C25.29-11.41 23.17-14.47 21.06-17.54C18.50-20.85 15.98-22.50 13.50-22.50C16.31-22.50 19.50-23.74 23.06-26.23C26.25-28.45 29.02-31.10 31.36-34.17C33.70-37.24 34.88-39.73 34.88-41.63L34.88-45L31.50-45L31.50-41.63C31.50-39.70 30.43-37.34 28.28-34.54C26.14-31.74 23.52-29.38 20.43-27.46C16.89-25.28 13.45-24.19 10.13-24.19Z"/></svg>