<svg xmlns="http://www.w3.org/2000/svg" xmlns:xlink="http://www.w3.org/1999/xlink" width="45" height="72"><path d="M37.97-31.89C37.97-35.50 36.37-38.58 33.17-41.15C29.97-43.72 26.14-45 21.69-45L5.41-45L5.41 0L8.82 0L8.82-18.81L21.69-18.81C26.17-18.81 30.00-20.09 33.19-22.64C36.38-25.20 37.97-28.28 37.97-31.89ZM34.56-31.89C34.56-29.21 33.28-26.82 30.71-24.70C28.14-22.58 25.08-21.52 21.52-21.52L8.82-21.52L8.82-42.43L21.69-42.43C25.25-42.43 28.29-41.40 30.80-39.32C33.30-37.25 34.56-34.77 34.56-31.89Z"/></svg>