<svg xmlns="http://www.w3.org/2000/svg" xmlns:xlink="http://www.w3.org/1999/xlink" width="45" height="72"><path d="M38.25-22.50C38.25-28.43 36.96-33.53 34.38-37.79C31.48-42.60 27.52-45 22.50-45C17.48-45 13.51-42.59 10.58-37.76C8.03-33.54 6.75-28.45 6.75-22.50C6.75-16.57 8.04-11.47 10.62-7.21C13.52-2.40 17.48 0 22.50 0C24.73 0 26.75-0.49 28.58-1.48L33.54 5.59L36.32 3.62L31.36-3.45C33.61-5.51 35.34-8.33 36.56-11.92C37.69-15.22 38.25-18.75 38.25-22.50ZM34.88-22.50C34.88-17.46 33.91-13.16 31.99-9.60C29.74-5.45 26.58-3.38 22.50-3.38C18.40-3.38 15.22-5.46 12.97-9.63C11.07-13.15 10.13-17.44 10.13-22.50C10.13-27.54 11.09-31.84 13.01-35.40C15.26-39.55 18.42-41.63 22.50-41.63C26.60-41.63 29.78-39.54 32.03-35.37C33.93-31.85 34.88-27.56 34.88-22.50Z"/></svg>