<svg xmlns="http://www.w3.org/2000/svg" xmlns:xlink="http://www.w3.org/1999/xlink" width="45" height="72"><path d="M37.97 0L27.60-19.97C30.53-21.26 32.80-22.95 34.42-25.03C36.04-27.12 36.84-29.40 36.84-31.89C36.84-35.50 35.30-38.58 32.22-41.15C29.14-43.72 25.44-45 21.13-45L5.41-45L5.41 0L8.68 0L8.68-18.81L21.13-18.81C21.53-18.81 21.97-18.83 22.46-18.88C22.96-18.93 23.65-19.01 24.54-19.13L33.75 0ZM33.61-31.89C33.61-29.24 32.36-26.85 29.87-24.71C27.37-22.58 24.41-21.52 20.99-21.52L8.68-21.52L8.68-42.43L21.13-42.43C24.57-42.43 27.52-41.40 29.95-39.34C32.39-37.28 33.61-34.79 33.61-31.89Z"/></svg>