<svg xmlns="http://www.w3.org/2000/svg" xmlns:xlink="http://www.w3.org/1999/xlink" width="45" height="72"><path d="M37.72-12.94C37.72-16.57 36.46-19.63 33.94-22.13C31.42-24.63 28.37-25.88 24.79-25.88L18.60-25.88C16.44-25.88 14.59-26.65 13.04-28.20C11.50-29.74 10.72-31.59 10.72-33.75C10.72-35.91 11.50-37.76 13.04-39.30C14.59-40.85 16.44-41.63 18.60-41.63L24.79-41.63C26.26-41.63 28.22-41.17 30.66-40.25C31.45-39.97 32.50-39.53 33.79-38.92L33.79-42.33C32.47-42.94 31.43-43.38 30.66-43.66C28.27-44.55 26.31-45 24.79-45L18.60-45C15.50-45 12.86-43.90 10.65-41.70C8.45-39.49 7.35-36.84 7.35-33.75C7.35-30.66 8.45-28.01 10.65-25.80C12.86-23.60 15.50-22.50 18.60-22.50L24.79-22.50C27.43-22.50 29.69-21.57 31.55-19.71C33.42-17.84 34.35-15.59 34.35-12.94C34.35-10.29 33.42-8.03 31.55-6.17C29.69-4.31 27.43-3.38 24.79-3.38L18.60-3.38C17.12-3.38 15.36-3.79 13.32-4.61C11.82-5.21 10.29-5.98 8.72-6.89C8.06-7.29 7.42-7.70 6.79-8.12L6.79-4.50L8.75-3.30C10.28-2.46 11.81-1.75 13.36-1.16C15.40-0.39 17.14 0 18.60 0L24.79 0C28.35 0 31.39-1.27 33.93-3.80C36.46-6.33 37.72-9.38 37.72-12.94Z"/></svg>