<svg xmlns="http://www.w3.org/2000/svg" xmlns:xlink="http://www.w3.org/1999/xlink" width="45" height="72"><path d="M38.25-41.63L38.25-45L34.88-45L34.88-41.63C34.88-36.16 33.94-30.35 32.06-24.19C29.95-17.23 26.77-10.29 22.50-3.38C18.23-10.29 15.05-17.23 12.94-24.19C11.06-30.35 10.13-36.16 10.13-41.63L10.13-45L6.75-45L6.75-41.63C6.75-37.05 7.43-32.29 8.79-27.32C9.96-23.03 11.67-18.43 13.92-13.54C15.56-9.95 17.86-5.44 20.81 0L24.19 0C27.09-5.37 29.39-9.89 31.08-13.57C33.40-18.66 35.12-23.25 36.25-27.35C37.58-32.27 38.25-37.03 38.25-41.63Z"/></svg>