<svg xmlns="http://www.w3.org/2000/svg" xmlns:xlink="http://www.w3.org/1999/xlink" width="45" height="72"><path d="M38.25 0L38.25-3.38C38.25-4.43 37.58-6.00 36.25-8.09C35.14-9.80 33.46-12.04 31.18-14.80C29.66-16.65 27.46-19.22 24.57-22.50C27.34-25.66 29.54-28.24 31.18-30.23C33.46-33.00 35.14-35.24 36.25-36.95C37.58-39.04 38.25-40.59 38.25-41.63L38.25-45L34.88-45L34.88-41.63C34.88-40.78 34.29-39.48 33.12-37.72C32.20-36.36 30.68-34.41 28.55-31.85C27.16-30.19 25.15-27.86 22.50-24.86C19.73-28.02 17.71-30.36 16.42-31.89C14.38-34.35 12.87-36.30 11.88-37.76C10.71-39.52 10.13-40.80 10.13-41.63L10.13-45L6.75-45L6.75-41.63C6.75-40.57 7.42-39.00 8.75-36.91C9.86-35.20 11.54-32.96 13.82-30.20C15.34-28.35 17.54-25.78 20.43-22.50C17.66-19.34 15.46-16.76 13.82-14.77C11.54-12.00 9.86-9.76 8.75-8.05C7.42-5.96 6.75-4.41 6.75-3.38L6.75 0L10.13 0L10.13-3.38C10.13-4.22 10.71-5.52 11.88-7.28C12.80-8.64 14.32-10.59 16.45-13.15C17.84-14.81 19.85-17.14 22.50-20.14C25.27-16.98 27.29-14.64 28.58-13.11C30.62-10.65 32.13-8.70 33.12-7.24C34.29-5.48 34.88-4.20 34.88-3.38L34.88 0Z"/></svg>