<svg xmlns="http://www.w3.org/2000/svg" xmlns:xlink="http://www.w3.org/1999/xlink" width="45" height="72"><path d="M38.25-41.63L38.25-45L34.84-45L34.88-41.63C34.88-38.65 34.32-35.81 33.22-33.12C32.38-31.05 30.91-28.45 28.83-25.31C24.80-19.24 22.69-16.05 22.50-15.75C20.37-18.94 18.25-22.14 16.14-25.35C14.03-28.56 12.56-31.16 11.74-33.15C10.66-35.80 10.13-38.63 10.13-41.63L10.13-45L6.75-45L6.75-41.63C6.75-38.79 7.34-36.01 8.51-33.29C9.42-31.18 11.04-28.38 13.36-24.89C17.27-19.01 19.76-15.21 20.81-13.50L20.81 0L24.19 0L24.19-13.50C25.36-15.40 27.87-19.23 31.71-25.00C34.10-28.58 35.72-31.36 36.56-33.33C37.69-35.95 38.25-38.72 38.25-41.63Z"/></svg>