<svg xmlns="http://www.w3.org/2000/svg" xmlns:xlink="http://www.w3.org/1999/xlink" width="45" height="72"><path d="M38.25-15.75C38.25-20.11 36.71-23.82 33.64-26.89C30.57-29.96 26.86-31.50 22.50-31.50C19.90-31.50 17.52-30.95 15.36-29.85C13.35-28.84 11.60-27.39 10.13-25.49L10.13-45L6.75-45L6.75 0L10.13 0L10.13-6.01C11.65-4.09 13.44-2.61 15.50-1.56C17.57-0.52 19.90 0 22.50 0C26.86 0 30.57-1.54 33.64-4.61C36.71-7.68 38.25-11.39 38.25-15.75ZM34.88-15.75C34.88-12.33 33.67-9.41 31.25-7.00C28.84-4.58 25.92-3.38 22.50-3.38C19.08-3.38 16.16-4.58 13.75-7.00C11.33-9.41 10.13-12.33 10.13-15.75C10.13-19.17 11.33-22.09 13.75-24.50C16.16-26.92 19.08-28.13 22.50-28.13C25.92-28.13 28.84-26.92 31.25-24.50C33.67-22.09 34.88-19.17 34.88-15.75Z"/></svg>