<svg xmlns="http://www.w3.org/2000/svg" xmlns:xlink="http://www.w3.org/1999/xlink" width="45" height="72"><path d="M36.74-9L32.87-9C31.75-7.27 30.28-5.89 28.48-4.89C26.67-3.88 24.68-3.38 22.50-3.38C19.08-3.38 16.16-4.58 13.75-7.00C11.33-9.41 10.13-12.33 10.13-15.75C10.13-19.17 11.33-22.09 13.75-24.50C16.16-26.92 19.08-28.13 22.50-28.13C24.70-28.13 26.73-27.61 28.58-26.58C30.32-25.62 31.75-24.26 32.87-22.50L36.74-22.50C35.45-25.24 33.57-27.41 31.11-29.00C28.56-30.67 25.69-31.50 22.50-31.50C18.14-31.50 14.43-29.96 11.36-26.89C8.29-23.82 6.75-20.11 6.75-15.75C6.75-11.39 8.29-7.68 11.36-4.61C14.43-1.54 18.14 0 22.50 0C25.69 0 28.54-0.82 31.04-2.46C33.55-4.10 35.45-6.28 36.74-9Z"/></svg>